<svg width="100%" height="100%" viewBox="0 0 819 472" fill="none" xmlns="http://www.w3.org/2000/svg">
<g filter="url(#filter0_d_17_17754)">
<rect width="811" height="464" transform="translate(4)" fill="url(#paint0_linear_17_17754)"/>
<path d="M498.5 149H535.5" stroke="#9BA7B6" stroke-width="2"/>
<path d="M556.071 147.989C556.071 148.759 555.976 149.461 555.784 150.095C555.593 150.724 555.301 151.266 554.909 151.722C554.522 152.177 554.03 152.528 553.433 152.774C552.836 153.016 552.129 153.137 551.313 153.137C550.498 153.137 549.791 153.016 549.194 152.774C548.597 152.528 548.103 152.177 547.711 151.722C547.324 151.266 547.034 150.721 546.843 150.088C546.651 149.454 546.556 148.75 546.556 147.976C546.556 146.941 546.724 146.041 547.062 145.275C547.403 144.505 547.927 143.908 548.634 143.484C549.34 143.061 550.238 142.849 551.327 142.849C552.412 142.849 553.303 143.061 554 143.484C554.702 143.908 555.221 144.505 555.559 145.275C555.9 146.046 556.071 146.95 556.071 147.989ZM548.777 147.989C548.777 148.687 548.864 149.288 549.037 149.794C549.215 150.295 549.491 150.683 549.864 150.956C550.238 151.225 550.721 151.359 551.313 151.359C551.915 151.359 552.403 151.225 552.776 150.956C553.15 150.683 553.421 150.295 553.59 149.794C553.763 149.288 553.85 148.687 553.85 147.989C553.85 146.941 553.654 146.116 553.262 145.515C552.87 144.913 552.225 144.612 551.327 144.612C550.73 144.612 550.243 144.749 549.864 145.022C549.491 145.291 549.215 145.679 549.037 146.185C548.864 146.686 548.777 147.287 548.777 147.989ZM558.143 153V143.006H560.262V151.25H564.315V153H558.143ZM572.177 153L571.452 150.621H567.809L567.084 153H564.801L568.328 142.965H570.919L574.46 153H572.177ZM570.946 148.844L570.222 146.52C570.176 146.365 570.115 146.166 570.037 145.925C569.964 145.679 569.889 145.43 569.812 145.18C569.739 144.924 569.679 144.703 569.634 144.517C569.588 144.703 569.524 144.936 569.442 145.214C569.365 145.487 569.29 145.747 569.217 145.993C569.144 146.239 569.091 146.415 569.06 146.52L568.342 148.844H570.946ZM578.917 143.006C580.207 143.006 581.148 143.284 581.74 143.84C582.333 144.391 582.629 145.152 582.629 146.123C582.629 146.561 582.563 146.98 582.431 147.381C582.299 147.777 582.082 148.131 581.781 148.44C581.485 148.75 581.089 148.996 580.592 149.179C580.095 149.356 579.482 149.445 578.753 149.445H577.844V153H575.725V143.006H578.917ZM578.808 144.742H577.844V147.709H578.541C578.938 147.709 579.282 147.657 579.573 147.552C579.865 147.447 580.09 147.283 580.25 147.06C580.41 146.836 580.489 146.549 580.489 146.198C580.489 145.706 580.353 145.341 580.079 145.104C579.806 144.863 579.382 144.742 578.808 144.742Z" fill="#A3B7EE"/>
<path d="M574.875 172H569.262V171.186L571.553 168.859C571.979 168.43 572.336 168.047 572.625 167.711C572.918 167.375 573.141 167.045 573.293 166.721C573.445 166.393 573.521 166.033 573.521 165.643C573.521 165.158 573.377 164.789 573.088 164.535C572.803 164.277 572.426 164.148 571.957 164.148C571.547 164.148 571.184 164.219 570.867 164.359C570.551 164.5 570.227 164.699 569.895 164.957L569.373 164.301C569.6 164.109 569.846 163.939 570.111 163.791C570.381 163.643 570.668 163.525 570.973 163.439C571.281 163.354 571.609 163.311 571.957 163.311C572.484 163.311 572.939 163.402 573.322 163.586C573.705 163.77 574 164.031 574.207 164.371C574.418 164.711 574.523 165.115 574.523 165.584C574.523 166.037 574.434 166.459 574.254 166.85C574.074 167.236 573.822 167.621 573.498 168.004C573.174 168.383 572.795 168.785 572.361 169.211L570.498 171.068V171.109H574.875V172ZM578.836 166.762C579.418 166.762 579.924 166.861 580.354 167.061C580.783 167.256 581.115 167.541 581.35 167.916C581.588 168.291 581.707 168.746 581.707 169.281C581.707 169.867 581.58 170.373 581.326 170.799C581.072 171.221 580.707 171.547 580.23 171.777C579.754 172.004 579.184 172.117 578.52 172.117C578.074 172.117 577.66 172.078 577.277 172C576.895 171.922 576.572 171.805 576.311 171.648V170.723C576.596 170.895 576.941 171.031 577.348 171.133C577.754 171.234 578.148 171.285 578.531 171.285C578.965 171.285 579.344 171.217 579.668 171.08C579.996 170.939 580.25 170.729 580.43 170.447C580.613 170.162 580.705 169.805 580.705 169.375C580.705 168.805 580.529 168.365 580.178 168.057C579.83 167.744 579.279 167.588 578.525 167.588C578.283 167.588 578.018 167.607 577.729 167.646C577.439 167.686 577.201 167.729 577.014 167.775L576.521 167.453L576.85 163.434H581.109V164.324H577.682L577.465 166.908C577.613 166.877 577.805 166.846 578.039 166.814C578.273 166.779 578.539 166.762 578.836 166.762ZM584.742 163.311C585.328 163.311 585.771 163.545 586.072 164.014C586.377 164.479 586.529 165.137 586.529 165.988C586.529 166.84 586.383 167.504 586.09 167.98C585.797 168.453 585.348 168.689 584.742 168.689C584.18 168.689 583.748 168.453 583.447 167.98C583.15 167.504 583.002 166.84 583.002 165.988C583.002 165.137 583.145 164.479 583.43 164.014C583.715 163.545 584.152 163.311 584.742 163.311ZM584.742 164.008C584.426 164.008 584.193 164.174 584.045 164.506C583.896 164.834 583.822 165.328 583.822 165.988C583.822 166.648 583.896 167.146 584.045 167.482C584.193 167.818 584.426 167.986 584.742 167.986C585.07 167.986 585.314 167.818 585.475 167.482C585.635 167.146 585.715 166.648 585.715 165.988C585.715 165.332 585.635 164.838 585.475 164.506C585.318 164.174 585.074 164.008 584.742 164.008ZM590.168 163.434L585.416 172H584.561L589.312 163.434H590.168ZM589.939 166.744C590.521 166.744 590.965 166.979 591.27 167.447C591.574 167.912 591.727 168.57 591.727 169.422C591.727 170.27 591.58 170.932 591.287 171.408C590.994 171.881 590.545 172.117 589.939 172.117C589.373 172.117 588.941 171.881 588.645 171.408C588.348 170.932 588.199 170.27 588.199 169.422C588.199 168.57 588.34 167.912 588.621 167.447C588.906 166.979 589.346 166.744 589.939 166.744ZM589.939 167.447C589.623 167.447 589.391 167.611 589.242 167.939C589.094 168.268 589.02 168.762 589.02 169.422C589.02 170.082 589.094 170.58 589.242 170.916C589.391 171.248 589.623 171.414 589.939 171.414C590.268 171.414 590.512 171.25 590.672 170.922C590.832 170.59 590.912 170.09 590.912 169.422C590.912 168.766 590.832 168.273 590.672 167.945C590.516 167.613 590.271 167.447 589.939 167.447Z" fill="#506073"/>
<path fill-rule="evenodd" clip-rule="evenodd" d="M493.717 236.842C495.154 237.688 497.009 237.202 497.798 235.733C505.265 221.813 509.5 205.901 509.5 189C509.5 135.676 467.341 92.1979 414.536 90.0807C412.869 90.0139 411.5 91.3663 411.5 93.0348V111.045C411.5 112.687 412.824 114.018 414.463 114.103C454.042 116.163 485.5 148.908 485.5 189C485.5 201.479 482.452 213.246 477.061 223.598C476.302 225.054 476.778 226.868 478.194 227.701L493.717 236.842Z" fill="#7492E7"/>
<path d="M373.027 165.72C374.203 165.72 375.084 165.976 375.668 166.488C376.256 167 376.55 167.728 376.55 168.671C376.55 169.095 376.489 169.501 376.366 169.89C376.247 170.279 376.051 170.626 375.776 170.931C375.505 171.236 375.143 171.477 374.69 171.655C374.242 171.833 373.687 171.921 373.027 171.921H372.322V175H369.815V165.72H373.027ZM372.97 167.745H372.322V169.877H372.818C373.033 169.877 373.234 169.841 373.421 169.77C373.607 169.693 373.755 169.573 373.865 169.408C373.979 169.238 374.036 169.014 374.036 168.735C374.036 168.443 373.95 168.206 373.776 168.024C373.603 167.838 373.334 167.745 372.97 167.745ZM380.76 167.681C381.459 167.681 382.062 167.804 382.569 168.049C383.077 168.291 383.469 168.654 383.744 169.141C384.019 169.628 384.156 170.237 384.156 170.969V172.074H379.719C379.74 172.45 379.88 172.759 380.138 173C380.401 173.242 380.786 173.362 381.294 173.362C381.742 173.362 382.153 173.318 382.525 173.229C382.902 173.14 383.289 173.003 383.687 172.816V174.6C383.34 174.782 382.961 174.915 382.55 175C382.14 175.085 381.621 175.127 380.995 175.127C380.272 175.127 379.624 174.998 379.053 174.74C378.482 174.482 378.031 174.082 377.701 173.54C377.375 172.998 377.212 172.302 377.212 171.452C377.212 170.588 377.36 169.88 377.656 169.325C377.953 168.767 378.367 168.354 378.9 168.087C379.434 167.817 380.054 167.681 380.76 167.681ZM380.849 169.37C380.557 169.37 380.312 169.463 380.113 169.649C379.918 169.831 379.804 170.119 379.77 170.512H381.903C381.899 170.301 381.856 170.108 381.776 169.935C381.696 169.761 381.577 169.624 381.42 169.522C381.268 169.42 381.078 169.37 380.849 169.37ZM389.541 167.681C389.676 167.681 389.818 167.692 389.966 167.713C390.114 167.73 390.224 167.745 390.296 167.757L390.074 170.1C389.994 170.078 389.89 170.062 389.763 170.049C389.636 170.032 389.458 170.023 389.23 170.023C389.073 170.023 388.906 170.038 388.728 170.068C388.551 170.097 388.381 170.161 388.221 170.258C388.064 170.351 387.935 170.495 387.833 170.69C387.732 170.88 387.681 171.139 387.681 171.464V175H385.199V167.808H387.046L387.434 168.957H387.554C387.685 168.72 387.852 168.506 388.056 168.316C388.263 168.121 388.494 167.967 388.747 167.853C389.006 167.738 389.27 167.681 389.541 167.681ZM395.338 169.668H393.808V175H391.326V169.668H390.374V168.449L391.377 167.84V167.719C391.377 167.097 391.46 166.591 391.625 166.202C391.79 165.809 392.052 165.519 392.412 165.333C392.772 165.146 393.241 165.053 393.821 165.053C394.193 165.053 394.53 165.083 394.83 165.142C395.135 165.201 395.452 165.286 395.782 165.396L395.249 167.002C395.127 166.968 394.989 166.938 394.837 166.913C394.689 166.888 394.528 166.875 394.354 166.875C394.164 166.875 394.024 166.934 393.935 167.053C393.851 167.167 393.808 167.355 393.808 167.618V167.808H395.338V169.668ZM402.824 171.388C402.824 171.989 402.741 172.522 402.576 172.988C402.411 173.453 402.172 173.845 401.859 174.162C401.546 174.479 401.167 174.721 400.723 174.886C400.278 175.047 399.777 175.127 399.218 175.127C398.698 175.127 398.22 175.047 397.784 174.886C397.352 174.721 396.976 174.479 396.654 174.162C396.332 173.845 396.083 173.453 395.905 172.988C395.731 172.522 395.645 171.989 395.645 171.388C395.645 170.593 395.789 169.92 396.076 169.37C396.368 168.819 396.783 168.401 397.32 168.113C397.862 167.825 398.507 167.681 399.256 167.681C399.946 167.681 400.56 167.825 401.097 168.113C401.635 168.401 402.056 168.819 402.36 169.37C402.669 169.92 402.824 170.593 402.824 171.388ZM398.165 171.388C398.165 171.799 398.201 172.146 398.273 172.429C398.345 172.708 398.459 172.922 398.615 173.07C398.776 173.214 398.986 173.286 399.244 173.286C399.502 173.286 399.707 173.214 399.86 173.07C400.012 172.922 400.122 172.708 400.19 172.429C400.262 172.146 400.297 171.799 400.297 171.388C400.297 170.978 400.262 170.635 400.19 170.36C400.122 170.085 400.01 169.877 399.853 169.738C399.701 169.598 399.493 169.528 399.231 169.528C398.854 169.528 398.582 169.685 398.412 169.998C398.247 170.311 398.165 170.775 398.165 171.388ZM408.228 167.681C408.363 167.681 408.505 167.692 408.653 167.713C408.801 167.73 408.911 167.745 408.983 167.757L408.761 170.1C408.68 170.078 408.577 170.062 408.45 170.049C408.323 170.032 408.145 170.023 407.917 170.023C407.76 170.023 407.593 170.038 407.415 170.068C407.237 170.097 407.068 170.161 406.907 170.258C406.751 170.351 406.622 170.495 406.52 170.69C406.418 170.88 406.368 171.139 406.368 171.464V175H403.886V167.808H405.733L406.12 168.957H406.241C406.372 168.72 406.539 168.506 406.742 168.316C406.95 168.121 407.18 167.967 407.434 167.853C407.692 167.738 407.957 167.681 408.228 167.681ZM418.411 167.681C419.232 167.681 419.858 167.891 420.29 168.31C420.726 168.729 420.944 169.399 420.944 170.322V175H418.462V171.09C418.462 170.544 418.388 170.165 418.24 169.954C418.096 169.738 417.88 169.63 417.592 169.63C417.19 169.63 416.911 169.806 416.754 170.157C416.602 170.508 416.526 171.005 416.526 171.648V175H414.037V171.09C414.037 170.743 414.006 170.464 413.942 170.252C413.883 170.036 413.792 169.88 413.669 169.782C413.547 169.681 413.392 169.63 413.206 169.63C412.922 169.63 412.7 169.717 412.539 169.89C412.383 170.059 412.273 170.309 412.209 170.639C412.146 170.969 412.114 171.373 412.114 171.852V175H409.632V167.808H411.505L411.867 168.697H411.936C412.063 168.502 412.226 168.329 412.425 168.176C412.628 168.024 412.867 167.903 413.142 167.814C413.422 167.726 413.739 167.681 414.095 167.681C414.624 167.681 415.059 167.77 415.402 167.948C415.745 168.125 416.024 168.371 416.24 168.684H416.316C416.545 168.362 416.839 168.115 417.199 167.941C417.558 167.768 417.962 167.681 418.411 167.681ZM425.782 167.681C426.692 167.681 427.403 167.908 427.915 168.36C428.427 168.809 428.683 169.45 428.683 170.284V175H426.963L426.487 174.048H426.436C426.233 174.302 426.024 174.509 425.808 174.67C425.596 174.826 425.353 174.941 425.078 175.013C424.803 175.089 424.466 175.127 424.069 175.127C423.654 175.127 423.281 175.042 422.951 174.873C422.621 174.704 422.361 174.448 422.171 174.105C421.98 173.762 421.885 173.328 421.885 172.804C421.885 172.034 422.152 171.462 422.685 171.09C423.218 170.717 423.99 170.508 425.002 170.461L426.201 170.423V170.322C426.201 170 426.121 169.772 425.96 169.636C425.804 169.501 425.592 169.433 425.325 169.433C425.042 169.433 424.724 169.484 424.373 169.585C424.026 169.683 423.677 169.81 423.326 169.966L422.609 168.329C423.023 168.117 423.493 167.956 424.018 167.846C424.543 167.736 425.131 167.681 425.782 167.681ZM426.214 171.788L425.643 171.813C425.186 171.83 424.864 171.911 424.678 172.055C424.496 172.194 424.405 172.395 424.405 172.658C424.405 172.903 424.471 173.085 424.602 173.204C424.733 173.318 424.906 173.375 425.122 173.375C425.423 173.375 425.679 173.28 425.89 173.089C426.106 172.899 426.214 172.651 426.214 172.347V171.788ZM434.512 167.681C435.253 167.681 435.858 167.891 436.328 168.31C436.797 168.729 437.032 169.399 437.032 170.322V175H434.55V171.077C434.55 170.599 434.481 170.239 434.341 169.998C434.205 169.753 433.985 169.63 433.681 169.63C433.211 169.63 432.896 169.822 432.735 170.208C432.574 170.588 432.494 171.136 432.494 171.852V175H430.012V167.808H431.884L432.221 168.76H432.316C432.468 168.532 432.65 168.337 432.862 168.176C433.073 168.015 433.317 167.893 433.592 167.808C433.867 167.723 434.174 167.681 434.512 167.681ZM441.636 175.127C440.908 175.127 440.276 174.998 439.738 174.74C439.201 174.477 438.784 174.075 438.488 173.534C438.196 172.988 438.05 172.29 438.05 171.439C438.05 170.567 438.213 169.854 438.539 169.3C438.869 168.745 439.319 168.337 439.891 168.075C440.462 167.812 441.109 167.681 441.833 167.681C442.273 167.681 442.69 167.73 443.083 167.827C443.481 167.924 443.849 168.058 444.188 168.227L443.458 170.062C443.162 169.93 442.885 169.827 442.626 169.75C442.372 169.67 442.108 169.63 441.833 169.63C441.583 169.63 441.363 169.695 441.173 169.827C440.982 169.958 440.834 170.157 440.728 170.423C440.623 170.686 440.57 171.02 440.57 171.426C440.57 171.841 440.623 172.175 440.728 172.429C440.838 172.683 440.989 172.867 441.179 172.981C441.374 173.096 441.596 173.153 441.846 173.153C442.205 173.153 442.563 173.098 442.918 172.988C443.278 172.874 443.619 172.717 443.94 172.518V174.492C443.644 174.687 443.31 174.841 442.937 174.956C442.565 175.07 442.131 175.127 441.636 175.127ZM448.246 167.681C448.944 167.681 449.547 167.804 450.055 168.049C450.563 168.291 450.954 168.654 451.229 169.141C451.504 169.628 451.642 170.237 451.642 170.969V172.074H447.205C447.226 172.45 447.366 172.759 447.624 173C447.886 173.242 448.271 173.362 448.779 173.362C449.228 173.362 449.638 173.318 450.011 173.229C450.387 173.14 450.774 173.003 451.172 172.816V174.6C450.825 174.782 450.446 174.915 450.036 175C449.625 175.085 449.107 175.127 448.481 175.127C447.757 175.127 447.11 174.998 446.538 174.74C445.967 174.482 445.516 174.082 445.186 173.54C444.86 172.998 444.698 172.302 444.698 171.452C444.698 170.588 444.846 169.88 445.142 169.325C445.438 168.767 445.853 168.354 446.386 168.087C446.919 167.817 447.539 167.681 448.246 167.681ZM448.335 169.37C448.043 169.37 447.797 169.463 447.598 169.649C447.404 169.831 447.29 170.119 447.256 170.512H449.388C449.384 170.301 449.342 170.108 449.262 169.935C449.181 169.761 449.063 169.624 448.906 169.522C448.754 169.42 448.563 169.37 448.335 169.37Z" fill="#A3B7EE"/>
<path d="M535.5 314L461.5 314" stroke="#9BA7B6" stroke-width="2"/>
<path d="M561.285 319H558.879L556.261 314.789L555.365 315.432V319H553.246V309.006H555.365V313.579C555.507 313.383 555.646 313.187 555.782 312.991C555.919 312.795 556.058 312.599 556.199 312.403L558.906 309.006H561.258L557.771 313.429L561.285 319ZM570.835 313.907C570.835 315.033 570.618 315.974 570.186 316.73C569.757 317.482 569.135 318.05 568.319 318.433C567.504 318.811 566.521 319 565.373 319H562.543V309.006H565.681C566.729 309.006 567.638 309.193 568.408 309.566C569.178 309.936 569.775 310.485 570.199 311.214C570.623 311.938 570.835 312.836 570.835 313.907ZM568.634 313.962C568.634 313.224 568.524 312.618 568.306 312.144C568.091 311.665 567.772 311.312 567.349 311.084C566.929 310.856 566.41 310.742 565.79 310.742H564.662V317.25H565.571C566.606 317.25 567.374 316.974 567.875 316.423C568.381 315.871 568.634 315.051 568.634 313.962ZM581.198 313.907C581.198 315.033 580.982 315.974 580.549 316.73C580.12 317.482 579.498 318.05 578.683 318.433C577.867 318.811 576.885 319 575.736 319H572.906V309.006H576.044C577.092 309.006 578.001 309.193 578.771 309.566C579.542 309.936 580.139 310.485 580.562 311.214C580.986 311.938 581.198 312.836 581.198 313.907ZM578.997 313.962C578.997 313.224 578.888 312.618 578.669 312.144C578.455 311.665 578.136 311.312 577.712 311.084C577.293 310.856 576.773 310.742 576.153 310.742H575.025V317.25H575.935C576.969 317.25 577.737 316.974 578.238 316.423C578.744 315.871 578.997 315.051 578.997 313.962Z" fill="#A3B7EE"/>
<path d="M576.559 331.432C576.559 331.814 576.484 332.146 576.336 332.428C576.188 332.709 575.98 332.939 575.715 333.119C575.449 333.295 575.137 333.418 574.777 333.488V333.535C575.457 333.621 575.967 333.84 576.307 334.191C576.65 334.543 576.822 335.004 576.822 335.574C576.822 336.07 576.705 336.51 576.471 336.893C576.24 337.275 575.885 337.576 575.404 337.795C574.928 338.01 574.316 338.117 573.57 338.117C573.117 338.117 572.697 338.08 572.311 338.006C571.928 337.936 571.561 337.816 571.209 337.648V336.734C571.564 336.91 571.951 337.049 572.369 337.15C572.787 337.248 573.191 337.297 573.582 337.297C574.363 337.297 574.928 337.143 575.275 336.834C575.623 336.521 575.797 336.096 575.797 335.557C575.797 335.186 575.699 334.887 575.504 334.66C575.312 334.43 575.035 334.262 574.672 334.156C574.312 334.047 573.879 333.992 573.371 333.992H572.516V333.16H573.377C573.842 333.16 574.236 333.092 574.561 332.955C574.885 332.818 575.131 332.627 575.299 332.381C575.471 332.131 575.557 331.836 575.557 331.496C575.557 331.062 575.412 330.729 575.123 330.494C574.834 330.256 574.441 330.137 573.945 330.137C573.641 330.137 573.363 330.168 573.113 330.23C572.863 330.293 572.629 330.379 572.41 330.488C572.191 330.598 571.973 330.725 571.754 330.869L571.262 330.201C571.574 329.959 571.955 329.75 572.404 329.574C572.854 329.398 573.363 329.311 573.934 329.311C574.809 329.311 575.465 329.51 575.902 329.908C576.34 330.307 576.559 330.814 576.559 331.432ZM583.789 333.705C583.789 334.4 583.736 335.021 583.631 335.568C583.525 336.115 583.359 336.578 583.133 336.957C582.906 337.336 582.613 337.625 582.254 337.824C581.895 338.02 581.463 338.117 580.959 338.117C580.322 338.117 579.795 337.943 579.377 337.596C578.963 337.248 578.652 336.746 578.445 336.09C578.242 335.43 578.141 334.635 578.141 333.705C578.141 332.791 578.232 332.006 578.416 331.35C578.604 330.689 578.904 330.184 579.318 329.832C579.732 329.477 580.279 329.299 580.959 329.299C581.604 329.299 582.135 329.475 582.553 329.826C582.971 330.174 583.281 330.678 583.484 331.338C583.688 331.994 583.789 332.783 583.789 333.705ZM579.119 333.705C579.119 334.502 579.18 335.166 579.301 335.697C579.422 336.229 579.617 336.627 579.887 336.893C580.16 337.154 580.518 337.285 580.959 337.285C581.4 337.285 581.756 337.154 582.025 336.893C582.299 336.631 582.496 336.234 582.617 335.703C582.742 335.172 582.805 334.506 582.805 333.705C582.805 332.92 582.744 332.264 582.623 331.736C582.502 331.205 582.307 330.807 582.037 330.541C581.768 330.271 581.408 330.137 580.959 330.137C580.51 330.137 580.15 330.271 579.881 330.541C579.611 330.807 579.416 331.205 579.295 331.736C579.178 332.264 579.119 332.92 579.119 333.705ZM586.742 329.311C587.328 329.311 587.771 329.545 588.072 330.014C588.377 330.479 588.529 331.137 588.529 331.988C588.529 332.84 588.383 333.504 588.09 333.98C587.797 334.453 587.348 334.689 586.742 334.689C586.18 334.689 585.748 334.453 585.447 333.98C585.15 333.504 585.002 332.84 585.002 331.988C585.002 331.137 585.145 330.479 585.43 330.014C585.715 329.545 586.152 329.311 586.742 329.311ZM586.742 330.008C586.426 330.008 586.193 330.174 586.045 330.506C585.896 330.834 585.822 331.328 585.822 331.988C585.822 332.648 585.896 333.146 586.045 333.482C586.193 333.818 586.426 333.986 586.742 333.986C587.07 333.986 587.314 333.818 587.475 333.482C587.635 333.146 587.715 332.648 587.715 331.988C587.715 331.332 587.635 330.838 587.475 330.506C587.318 330.174 587.074 330.008 586.742 330.008ZM592.168 329.434L587.416 338H586.561L591.312 329.434H592.168ZM591.939 332.744C592.521 332.744 592.965 332.979 593.27 333.447C593.574 333.912 593.727 334.57 593.727 335.422C593.727 336.27 593.58 336.932 593.287 337.408C592.994 337.881 592.545 338.117 591.939 338.117C591.373 338.117 590.941 337.881 590.645 337.408C590.348 336.932 590.199 336.27 590.199 335.422C590.199 334.57 590.34 333.912 590.621 333.447C590.906 332.979 591.346 332.744 591.939 332.744ZM591.939 333.447C591.623 333.447 591.391 333.611 591.242 333.939C591.094 334.268 591.02 334.762 591.02 335.422C591.02 336.082 591.094 336.58 591.242 336.916C591.391 337.248 591.623 337.414 591.939 337.414C592.268 337.414 592.512 337.25 592.672 336.922C592.832 336.59 592.912 336.09 592.912 335.422C592.912 334.766 592.832 334.273 592.672 333.945C592.516 333.613 592.271 333.447 591.939 333.447Z" fill="#506073"/>
<path d="M447.5 281L462.5 315" stroke="#9BA7B6" stroke-width="2"/>
<path fill-rule="evenodd" clip-rule="evenodd" d="M477.272 229.255C475.857 228.427 474.043 228.892 473.14 230.261C459.723 250.588 436.678 264 410.5 264C400.065 264 390.129 261.869 381.101 258.019C379.591 257.375 377.819 257.989 377.097 259.463L369.172 275.643C368.438 277.141 369.065 278.954 370.591 279.627C382.799 285.011 396.3 288 410.5 288C445.481 288 476.225 269.857 493.835 242.467C494.738 241.062 494.259 239.201 492.818 238.358L477.272 229.255Z" fill="#C33D69"/>
<path d="M275.5 240L303.5 240" stroke="#9BA7B6" stroke-width="2"/>
<path d="M201.293 239.989C201.293 240.759 201.197 241.461 201.006 242.095C200.814 242.724 200.523 243.266 200.131 243.722C199.743 244.177 199.251 244.528 198.654 244.774C198.057 245.016 197.351 245.137 196.535 245.137C195.719 245.137 195.013 245.016 194.416 244.774C193.819 244.528 193.325 244.177 192.933 243.722C192.545 243.266 192.256 242.721 192.064 242.088C191.873 241.454 191.777 240.75 191.777 239.976C191.777 238.941 191.946 238.041 192.283 237.275C192.625 236.505 193.149 235.908 193.855 235.484C194.562 235.061 195.46 234.849 196.549 234.849C197.633 234.849 198.524 235.061 199.222 235.484C199.924 235.908 200.443 236.505 200.78 237.275C201.122 238.046 201.293 238.95 201.293 239.989ZM193.999 239.989C193.999 240.687 194.086 241.288 194.259 241.794C194.437 242.295 194.712 242.683 195.086 242.956C195.46 243.225 195.943 243.359 196.535 243.359C197.137 243.359 197.624 243.225 197.998 242.956C198.372 242.683 198.643 242.295 198.812 241.794C198.985 241.288 199.071 240.687 199.071 239.989C199.071 238.941 198.875 238.116 198.483 237.515C198.091 236.913 197.447 236.612 196.549 236.612C195.952 236.612 195.464 236.749 195.086 237.022C194.712 237.291 194.437 237.679 194.259 238.185C194.086 238.686 193.999 239.287 193.999 239.989ZM206.276 235.006C207.183 235.006 207.931 235.115 208.519 235.334C209.111 235.553 209.551 235.883 209.838 236.325C210.125 236.767 210.269 237.326 210.269 238C210.269 238.456 210.182 238.854 210.009 239.196C209.836 239.538 209.608 239.827 209.325 240.064C209.043 240.301 208.737 240.495 208.409 240.646L211.349 245H208.997L206.611 241.165H205.483V245H203.364V235.006H206.276ZM206.126 236.742H205.483V239.442H206.167C206.869 239.442 207.37 239.326 207.671 239.094C207.976 238.857 208.129 238.51 208.129 238.055C208.129 237.581 207.965 237.243 207.637 237.043C207.313 236.842 206.81 236.742 206.126 236.742ZM220.898 239.907C220.898 241.033 220.682 241.974 220.249 242.73C219.821 243.482 219.199 244.05 218.383 244.433C217.567 244.811 216.585 245 215.437 245H212.606V235.006H215.744C216.792 235.006 217.701 235.193 218.472 235.566C219.242 235.936 219.839 236.485 220.263 237.214C220.687 237.938 220.898 238.836 220.898 239.907ZM218.697 239.962C218.697 239.224 218.588 238.618 218.369 238.144C218.155 237.665 217.836 237.312 217.412 237.084C216.993 236.856 216.473 236.742 215.854 236.742H214.726V243.25H215.635C216.669 243.25 217.437 242.974 217.938 242.423C218.444 241.871 218.697 241.051 218.697 239.962ZM222.97 235.006H226.08C227.411 235.006 228.418 235.193 229.102 235.566C229.785 235.94 230.127 236.596 230.127 237.535C230.127 237.913 230.065 238.255 229.942 238.561C229.824 238.866 229.651 239.117 229.423 239.312C229.195 239.508 228.917 239.636 228.589 239.695V239.764C228.922 239.832 229.222 239.951 229.491 240.119C229.76 240.283 229.974 240.525 230.134 240.844C230.298 241.158 230.38 241.577 230.38 242.102C230.38 242.708 230.232 243.227 229.936 243.66C229.639 244.093 229.215 244.426 228.664 244.658C228.117 244.886 227.465 245 226.709 245H222.97V235.006ZM225.089 238.964H226.319C226.935 238.964 227.361 238.868 227.598 238.677C227.835 238.481 227.953 238.194 227.953 237.815C227.953 237.433 227.812 237.159 227.529 236.995C227.251 236.826 226.809 236.742 226.203 236.742H225.089V238.964ZM225.089 240.646V243.25H226.47C227.108 243.25 227.552 243.127 227.803 242.881C228.053 242.635 228.179 242.304 228.179 241.89C228.179 241.644 228.124 241.427 228.015 241.24C227.905 241.053 227.721 240.908 227.461 240.803C227.206 240.698 226.853 240.646 226.401 240.646H225.089ZM236.607 245L234.201 237.159H234.14C234.149 237.346 234.162 237.629 234.181 238.007C234.203 238.381 234.224 238.779 234.242 239.203C234.26 239.627 234.27 240.01 234.27 240.352V245H232.376V235.006H235.261L237.626 242.648H237.667L240.176 235.006H243.061V245H241.085V240.27C241.085 239.955 241.09 239.593 241.099 239.183C241.112 238.772 241.128 238.383 241.146 238.014C241.165 237.64 241.178 237.36 241.188 237.173H241.126L238.549 245H236.607ZM251.482 242.225C251.482 242.817 251.339 243.332 251.052 243.77C250.765 244.207 250.345 244.544 249.794 244.781C249.247 245.018 248.582 245.137 247.798 245.137C247.451 245.137 247.112 245.114 246.779 245.068C246.451 245.023 246.134 244.957 245.829 244.87C245.528 244.779 245.241 244.667 244.968 244.535V242.566C245.442 242.776 245.934 242.965 246.444 243.134C246.955 243.302 247.461 243.387 247.962 243.387C248.308 243.387 248.586 243.341 248.796 243.25C249.01 243.159 249.165 243.034 249.261 242.874C249.356 242.715 249.404 242.532 249.404 242.327C249.404 242.076 249.32 241.862 249.151 241.685C248.983 241.507 248.75 241.34 248.454 241.186C248.162 241.031 247.832 240.864 247.463 240.687C247.23 240.577 246.978 240.445 246.704 240.29C246.431 240.131 246.171 239.937 245.925 239.709C245.679 239.481 245.476 239.205 245.316 238.882C245.161 238.554 245.084 238.162 245.084 237.706C245.084 237.109 245.221 236.599 245.494 236.175C245.768 235.751 246.157 235.427 246.663 235.204C247.174 234.976 247.775 234.862 248.468 234.862C248.987 234.862 249.482 234.924 249.951 235.047C250.425 235.165 250.92 235.339 251.435 235.566L250.751 237.214C250.291 237.027 249.878 236.883 249.514 236.783C249.149 236.678 248.778 236.626 248.399 236.626C248.135 236.626 247.91 236.669 247.723 236.756C247.536 236.838 247.395 236.956 247.299 237.111C247.203 237.262 247.155 237.437 247.155 237.638C247.155 237.875 247.224 238.075 247.36 238.239C247.502 238.399 247.711 238.554 247.989 238.704C248.272 238.854 248.623 239.03 249.042 239.23C249.552 239.472 249.988 239.725 250.348 239.989C250.712 240.249 250.993 240.557 251.188 240.912C251.384 241.263 251.482 241.701 251.482 242.225Z" fill="#A3B7EE"/>
<path d="M231.875 264H226.262V263.186L228.553 260.859C228.979 260.43 229.336 260.047 229.625 259.711C229.918 259.375 230.141 259.045 230.293 258.721C230.445 258.393 230.521 258.033 230.521 257.643C230.521 257.158 230.377 256.789 230.088 256.535C229.803 256.277 229.426 256.148 228.957 256.148C228.547 256.148 228.184 256.219 227.867 256.359C227.551 256.5 227.227 256.699 226.895 256.957L226.373 256.301C226.6 256.109 226.846 255.939 227.111 255.791C227.381 255.643 227.668 255.525 227.973 255.439C228.281 255.354 228.609 255.311 228.957 255.311C229.484 255.311 229.939 255.402 230.322 255.586C230.705 255.77 231 256.031 231.207 256.371C231.418 256.711 231.523 257.115 231.523 257.584C231.523 258.037 231.434 258.459 231.254 258.85C231.074 259.236 230.822 259.621 230.498 260.004C230.174 260.383 229.795 260.785 229.361 261.211L227.498 263.068V263.109H231.875V264ZM235.836 258.762C236.418 258.762 236.924 258.861 237.354 259.061C237.783 259.256 238.115 259.541 238.35 259.916C238.588 260.291 238.707 260.746 238.707 261.281C238.707 261.867 238.58 262.373 238.326 262.799C238.072 263.221 237.707 263.547 237.23 263.777C236.754 264.004 236.184 264.117 235.52 264.117C235.074 264.117 234.66 264.078 234.277 264C233.895 263.922 233.572 263.805 233.311 263.648V262.723C233.596 262.895 233.941 263.031 234.348 263.133C234.754 263.234 235.148 263.285 235.531 263.285C235.965 263.285 236.344 263.217 236.668 263.08C236.996 262.939 237.25 262.729 237.43 262.447C237.613 262.162 237.705 261.805 237.705 261.375C237.705 260.805 237.529 260.365 237.178 260.057C236.83 259.744 236.279 259.588 235.525 259.588C235.283 259.588 235.018 259.607 234.729 259.646C234.439 259.686 234.201 259.729 234.014 259.775L233.521 259.453L233.85 255.434H238.109V256.324H234.682L234.465 258.908C234.613 258.877 234.805 258.846 235.039 258.814C235.273 258.779 235.539 258.762 235.836 258.762ZM241.742 255.311C242.328 255.311 242.771 255.545 243.072 256.014C243.377 256.479 243.529 257.137 243.529 257.988C243.529 258.84 243.383 259.504 243.09 259.98C242.797 260.453 242.348 260.689 241.742 260.689C241.18 260.689 240.748 260.453 240.447 259.98C240.15 259.504 240.002 258.84 240.002 257.988C240.002 257.137 240.145 256.479 240.43 256.014C240.715 255.545 241.152 255.311 241.742 255.311ZM241.742 256.008C241.426 256.008 241.193 256.174 241.045 256.506C240.896 256.834 240.822 257.328 240.822 257.988C240.822 258.648 240.896 259.146 241.045 259.482C241.193 259.818 241.426 259.986 241.742 259.986C242.07 259.986 242.314 259.818 242.475 259.482C242.635 259.146 242.715 258.648 242.715 257.988C242.715 257.332 242.635 256.838 242.475 256.506C242.318 256.174 242.074 256.008 241.742 256.008ZM247.168 255.434L242.416 264H241.561L246.312 255.434H247.168ZM246.939 258.744C247.521 258.744 247.965 258.979 248.27 259.447C248.574 259.912 248.727 260.57 248.727 261.422C248.727 262.27 248.58 262.932 248.287 263.408C247.994 263.881 247.545 264.117 246.939 264.117C246.373 264.117 245.941 263.881 245.645 263.408C245.348 262.932 245.199 262.27 245.199 261.422C245.199 260.57 245.34 259.912 245.621 259.447C245.906 258.979 246.346 258.744 246.939 258.744ZM246.939 259.447C246.623 259.447 246.391 259.611 246.242 259.939C246.094 260.268 246.02 260.762 246.02 261.422C246.02 262.082 246.094 262.58 246.242 262.916C246.391 263.248 246.623 263.414 246.939 263.414C247.268 263.414 247.512 263.25 247.672 262.922C247.832 262.59 247.912 262.09 247.912 261.422C247.912 260.766 247.832 260.273 247.672 259.945C247.516 259.613 247.271 259.447 246.939 259.447Z" fill="#506073"/>
<path d="M302.5 240L321.5 232" stroke="#9BA7B6" stroke-width="2"/>
<path fill-rule="evenodd" clip-rule="evenodd" d="M317.247 166.238C315.63 165.825 313.981 166.812 313.637 168.446C312.236 175.077 311.5 181.952 311.5 189C311.5 226.608 332.471 259.319 363.356 276.076C364.824 276.872 366.644 276.257 367.378 274.758L375.304 258.578C376.025 257.105 375.426 255.331 373.994 254.531C351.029 241.711 335.5 217.169 335.5 189C335.5 183.973 335.994 179.062 336.937 174.313C337.257 172.704 336.294 171.098 334.705 170.693L317.247 166.238Z" fill="#2EA597"/>
<path d="M274.5 110H319.5" stroke="#9BA7B6" stroke-width="2"/>
<path d="M319.5 110L336.5 124" stroke="#9BA7B6" stroke-width="2"/>
<path d="M194.148 115L191.742 107.159H191.681C191.69 107.346 191.703 107.629 191.722 108.007C191.744 108.381 191.765 108.779 191.783 109.203C191.801 109.627 191.811 110.01 191.811 110.352V115H189.917V105.006H192.802L195.167 112.648H195.208L197.717 105.006H200.602V115H198.626V110.27C198.626 109.955 198.631 109.593 198.64 109.183C198.653 108.772 198.669 108.383 198.688 108.014C198.706 107.64 198.719 107.36 198.729 107.173H198.667L196.09 115H194.148ZM209.905 111.165C209.905 111.803 209.819 112.368 209.646 112.86C209.477 113.353 209.229 113.77 208.9 114.111C208.577 114.449 208.185 114.704 207.725 114.877C207.269 115.05 206.754 115.137 206.18 115.137C205.642 115.137 205.147 115.05 204.696 114.877C204.25 114.704 203.86 114.449 203.527 114.111C203.199 113.77 202.944 113.353 202.762 112.86C202.584 112.368 202.495 111.803 202.495 111.165C202.495 110.317 202.646 109.6 202.946 109.012C203.247 108.424 203.675 107.977 204.231 107.672C204.787 107.367 205.451 107.214 206.221 107.214C206.936 107.214 207.57 107.367 208.121 107.672C208.677 107.977 209.112 108.424 209.427 109.012C209.746 109.6 209.905 110.317 209.905 111.165ZM204.621 111.165C204.621 111.666 204.676 112.088 204.785 112.43C204.895 112.771 205.065 113.029 205.298 113.202C205.53 113.375 205.833 113.462 206.207 113.462C206.576 113.462 206.875 113.375 207.103 113.202C207.335 113.029 207.504 112.771 207.608 112.43C207.718 112.088 207.772 111.666 207.772 111.165C207.772 110.659 207.718 110.24 207.608 109.907C207.504 109.57 207.335 109.317 207.103 109.148C206.87 108.98 206.567 108.896 206.193 108.896C205.642 108.896 205.241 109.085 204.99 109.463C204.744 109.841 204.621 110.409 204.621 111.165ZM214.048 115.137C213.196 115.137 212.501 114.804 211.963 114.139C211.43 113.469 211.163 112.487 211.163 111.192C211.163 109.884 211.434 108.896 211.977 108.226C212.519 107.551 213.228 107.214 214.103 107.214C214.467 107.214 214.788 107.264 215.066 107.364C215.344 107.465 215.584 107.599 215.784 107.768C215.989 107.936 216.162 108.125 216.304 108.335H216.372C216.345 108.189 216.311 107.975 216.27 107.692C216.233 107.405 216.215 107.111 216.215 106.811V104.363H218.307V115H216.707L216.304 114.009H216.215C216.083 114.218 215.916 114.41 215.716 114.583C215.52 114.752 215.285 114.886 215.012 114.986C214.738 115.087 214.417 115.137 214.048 115.137ZM214.779 113.476C215.349 113.476 215.75 113.307 215.982 112.97C216.219 112.628 216.345 112.115 216.358 111.432V111.206C216.358 110.463 216.244 109.896 216.017 109.504C215.789 109.107 215.365 108.909 214.745 108.909C214.285 108.909 213.925 109.107 213.665 109.504C213.405 109.9 213.275 110.472 213.275 111.22C213.275 111.967 213.405 112.53 213.665 112.908C213.929 113.286 214.301 113.476 214.779 113.476ZM223.639 107.214C224.345 107.214 224.953 107.351 225.464 107.624C225.974 107.893 226.368 108.285 226.646 108.8C226.924 109.315 227.063 109.944 227.063 110.687V111.698H222.135C222.158 112.286 222.333 112.749 222.661 113.086C222.994 113.419 223.454 113.585 224.042 113.585C224.53 113.585 224.976 113.535 225.382 113.435C225.787 113.334 226.204 113.184 226.633 112.983V114.597C226.255 114.784 225.858 114.92 225.443 115.007C225.033 115.093 224.534 115.137 223.946 115.137C223.181 115.137 222.502 114.995 221.909 114.713C221.321 114.43 220.859 114 220.521 113.421C220.189 112.842 220.022 112.113 220.022 111.233C220.022 110.34 220.173 109.597 220.474 109.005C220.779 108.408 221.203 107.961 221.745 107.665C222.287 107.364 222.919 107.214 223.639 107.214ZM223.652 108.697C223.247 108.697 222.91 108.827 222.641 109.087C222.376 109.347 222.224 109.755 222.183 110.311H225.108C225.104 110.001 225.047 109.725 224.938 109.483C224.833 109.242 224.673 109.05 224.459 108.909C224.249 108.768 223.98 108.697 223.652 108.697ZM230.844 115H228.759V104.363H230.844V115ZM235.123 107.357V115H233.038V107.357H235.123ZM234.084 104.363C234.394 104.363 234.66 104.436 234.884 104.582C235.107 104.723 235.219 104.99 235.219 105.382C235.219 105.769 235.107 106.038 234.884 106.188C234.66 106.334 234.394 106.407 234.084 106.407C233.77 106.407 233.501 106.334 233.277 106.188C233.059 106.038 232.949 105.769 232.949 105.382C232.949 104.99 233.059 104.723 233.277 104.582C233.501 104.436 233.77 104.363 234.084 104.363ZM241.658 107.214C242.474 107.214 243.13 107.437 243.627 107.884C244.124 108.326 244.372 109.037 244.372 110.017V115H242.287V110.536C242.287 109.989 242.187 109.577 241.986 109.299C241.79 109.021 241.48 108.882 241.057 108.882C240.419 108.882 239.983 109.098 239.751 109.531C239.519 109.964 239.402 110.589 239.402 111.404V115H237.317V107.357H238.91L239.19 108.335H239.307C239.471 108.071 239.674 107.856 239.915 107.692C240.161 107.528 240.432 107.408 240.729 107.33C241.029 107.253 241.339 107.214 241.658 107.214ZM248.754 118.363C247.688 118.363 246.872 118.176 246.307 117.803C245.746 117.434 245.466 116.914 245.466 116.244C245.466 115.784 245.609 115.399 245.896 115.089C246.184 114.779 246.605 114.558 247.161 114.426C246.947 114.335 246.76 114.187 246.601 113.981C246.441 113.772 246.361 113.551 246.361 113.318C246.361 113.027 246.446 112.785 246.614 112.594C246.783 112.398 247.027 112.206 247.346 112.02C246.945 111.846 246.626 111.568 246.389 111.186C246.156 110.803 246.04 110.352 246.04 109.832C246.04 109.276 246.161 108.804 246.402 108.417C246.648 108.025 247.004 107.727 247.469 107.521C247.938 107.316 248.508 107.214 249.178 107.214C249.319 107.214 249.483 107.223 249.67 107.241C249.857 107.259 250.028 107.28 250.183 107.303C250.342 107.326 250.449 107.344 250.504 107.357H253.17V108.417L251.974 108.725C252.083 108.893 252.165 109.073 252.22 109.265C252.274 109.456 252.302 109.659 252.302 109.873C252.302 110.693 252.015 111.334 251.44 111.794C250.871 112.25 250.078 112.478 249.062 112.478C248.82 112.464 248.592 112.446 248.378 112.423C248.273 112.505 248.193 112.591 248.139 112.683C248.084 112.774 248.057 112.869 248.057 112.97C248.057 113.07 248.098 113.154 248.18 113.223C248.266 113.286 248.394 113.337 248.562 113.373C248.736 113.405 248.95 113.421 249.205 113.421H250.504C251.342 113.421 251.98 113.601 252.418 113.961C252.86 114.321 253.081 114.85 253.081 115.547C253.081 116.44 252.707 117.133 251.96 117.625C251.217 118.117 250.148 118.363 248.754 118.363ZM248.843 117.003C249.34 117.003 249.766 116.955 250.121 116.859C250.481 116.768 250.757 116.636 250.948 116.463C251.14 116.294 251.235 116.091 251.235 115.854C251.235 115.663 251.178 115.51 251.064 115.396C250.955 115.287 250.786 115.21 250.559 115.164C250.335 115.118 250.048 115.096 249.697 115.096H248.617C248.362 115.096 248.132 115.137 247.927 115.219C247.726 115.301 247.567 115.415 247.448 115.561C247.33 115.711 247.271 115.884 247.271 116.08C247.271 116.367 247.407 116.593 247.681 116.757C247.959 116.921 248.346 117.003 248.843 117.003ZM249.178 111.206C249.57 111.206 249.857 111.085 250.039 110.844C250.221 110.602 250.312 110.274 250.312 109.859C250.312 109.399 250.217 109.055 250.025 108.827C249.839 108.595 249.556 108.479 249.178 108.479C248.795 108.479 248.508 108.595 248.316 108.827C248.125 109.055 248.029 109.399 248.029 109.859C248.029 110.274 248.123 110.602 248.31 110.844C248.501 111.085 248.79 111.206 249.178 111.206Z" fill="#A3B7EE"/>
<path d="M228.883 134H227.934V127.93C227.934 127.699 227.934 127.502 227.934 127.338C227.938 127.17 227.941 127.018 227.945 126.881C227.953 126.74 227.963 126.598 227.975 126.453C227.854 126.578 227.74 126.686 227.635 126.775C227.529 126.861 227.398 126.969 227.242 127.098L226.264 127.883L225.754 127.221L228.074 125.434H228.883V134ZM234.836 128.762C235.418 128.762 235.924 128.861 236.354 129.061C236.783 129.256 237.115 129.541 237.35 129.916C237.588 130.291 237.707 130.746 237.707 131.281C237.707 131.867 237.58 132.373 237.326 132.799C237.072 133.221 236.707 133.547 236.23 133.777C235.754 134.004 235.184 134.117 234.52 134.117C234.074 134.117 233.66 134.078 233.277 134C232.895 133.922 232.572 133.805 232.311 133.648V132.723C232.596 132.895 232.941 133.031 233.348 133.133C233.754 133.234 234.148 133.285 234.531 133.285C234.965 133.285 235.344 133.217 235.668 133.08C235.996 132.939 236.25 132.729 236.43 132.447C236.613 132.162 236.705 131.805 236.705 131.375C236.705 130.805 236.529 130.365 236.178 130.057C235.83 129.744 235.279 129.588 234.525 129.588C234.283 129.588 234.018 129.607 233.729 129.646C233.439 129.686 233.201 129.729 233.014 129.775L232.521 129.453L232.85 125.434H237.109V126.324H233.682L233.465 128.908C233.613 128.877 233.805 128.846 234.039 128.814C234.273 128.779 234.539 128.762 234.836 128.762ZM240.742 125.311C241.328 125.311 241.771 125.545 242.072 126.014C242.377 126.479 242.529 127.137 242.529 127.988C242.529 128.84 242.383 129.504 242.09 129.98C241.797 130.453 241.348 130.689 240.742 130.689C240.18 130.689 239.748 130.453 239.447 129.98C239.15 129.504 239.002 128.84 239.002 127.988C239.002 127.137 239.145 126.479 239.43 126.014C239.715 125.545 240.152 125.311 240.742 125.311ZM240.742 126.008C240.426 126.008 240.193 126.174 240.045 126.506C239.896 126.834 239.822 127.328 239.822 127.988C239.822 128.648 239.896 129.146 240.045 129.482C240.193 129.818 240.426 129.986 240.742 129.986C241.07 129.986 241.314 129.818 241.475 129.482C241.635 129.146 241.715 128.648 241.715 127.988C241.715 127.332 241.635 126.838 241.475 126.506C241.318 126.174 241.074 126.008 240.742 126.008ZM246.168 125.434L241.416 134H240.561L245.312 125.434H246.168ZM245.939 128.744C246.521 128.744 246.965 128.979 247.27 129.447C247.574 129.912 247.727 130.57 247.727 131.422C247.727 132.27 247.58 132.932 247.287 133.408C246.994 133.881 246.545 134.117 245.939 134.117C245.373 134.117 244.941 133.881 244.645 133.408C244.348 132.932 244.199 132.27 244.199 131.422C244.199 130.57 244.34 129.912 244.621 129.447C244.906 128.979 245.346 128.744 245.939 128.744ZM245.939 129.447C245.623 129.447 245.391 129.611 245.242 129.939C245.094 130.268 245.02 130.762 245.02 131.422C245.02 132.082 245.094 132.58 245.242 132.916C245.391 133.248 245.623 133.414 245.939 133.414C246.268 133.414 246.512 133.25 246.672 132.922C246.832 132.59 246.912 132.09 246.912 131.422C246.912 130.766 246.832 130.273 246.672 129.945C246.516 129.613 246.271 129.447 245.939 129.447Z" fill="#506073"/>
<path fill-rule="evenodd" clip-rule="evenodd" d="M369.888 102.023C369.197 100.503 367.396 99.8354 365.906 100.588C341.866 112.738 323.454 134.404 315.623 160.635C315.146 162.233 316.12 163.887 317.736 164.299L335.194 168.753C336.785 169.159 338.401 168.208 338.89 166.64C344.875 147.452 358.359 131.573 375.913 122.434C377.368 121.676 378.018 119.92 377.34 118.427L369.888 102.023Z" fill="#8456CE"/>
<path d="M179.272 52.626C178.867 52.626 178.507 52.7057 178.192 52.8652C177.882 53.0202 177.62 53.2458 177.406 53.542C177.197 53.8382 177.037 54.196 176.928 54.6152C176.818 55.0345 176.764 55.5062 176.764 56.0303C176.764 56.7367 176.85 57.3405 177.023 57.8418C177.201 58.3385 177.475 58.7191 177.844 58.9834C178.213 59.2432 178.689 59.373 179.272 59.373C179.678 59.373 180.084 59.3275 180.489 59.2363C180.899 59.1452 181.344 59.0153 181.822 58.8467V60.624C181.38 60.8063 180.945 60.9362 180.517 61.0137C180.088 61.0957 179.607 61.1367 179.074 61.1367C178.044 61.1367 177.197 60.9248 176.531 60.501C175.87 60.0726 175.381 59.4756 175.062 58.71C174.743 57.9398 174.583 57.042 174.583 56.0166C174.583 55.2601 174.686 54.5674 174.891 53.9385C175.096 53.3096 175.396 52.765 175.793 52.3047C176.189 51.8444 176.679 51.4889 177.263 51.2383C177.846 50.9876 178.516 50.8623 179.272 50.8623C179.769 50.8623 180.266 50.9261 180.763 51.0537C181.264 51.1768 181.743 51.3477 182.198 51.5664L181.515 53.2891C181.141 53.1113 180.765 52.9564 180.387 52.8242C180.008 52.6921 179.637 52.626 179.272 52.626ZM185.876 61H183.791V50.3633H185.876V61ZM191.201 53.2002C192.227 53.2002 193.013 53.4235 193.56 53.8701C194.106 54.3167 194.38 54.9958 194.38 55.9072V61H192.924L192.521 59.9609H192.466C192.247 60.2344 192.024 60.4577 191.796 60.6309C191.568 60.804 191.306 60.9316 191.01 61.0137C190.714 61.0957 190.354 61.1367 189.93 61.1367C189.479 61.1367 189.073 61.0501 188.713 60.877C188.357 60.7038 188.077 60.4395 187.872 60.084C187.667 59.724 187.564 59.2682 187.564 58.7168C187.564 57.9056 187.849 57.3086 188.419 56.9258C188.989 56.5384 189.843 56.3242 190.982 56.2832L192.309 56.2422V55.9072C192.309 55.5062 192.204 55.2122 191.994 55.0254C191.785 54.8385 191.493 54.7451 191.119 54.7451C190.75 54.7451 190.388 54.7975 190.032 54.9023C189.677 55.0072 189.321 55.1393 188.966 55.2988L188.275 53.8906C188.681 53.6764 189.134 53.5078 189.636 53.3848C190.142 53.2617 190.663 53.2002 191.201 53.2002ZM192.309 57.459L191.502 57.4863C190.827 57.5046 190.358 57.6253 190.094 57.8486C189.834 58.0719 189.704 58.3659 189.704 58.7305C189.704 59.0495 189.798 59.2773 189.984 59.4141C190.171 59.5462 190.415 59.6123 190.716 59.6123C191.162 59.6123 191.538 59.4801 191.844 59.2158C192.154 58.9515 192.309 58.5755 192.309 58.0879V57.459ZM201.865 58.7305C201.865 59.25 201.742 59.6898 201.496 60.0498C201.255 60.4053 200.892 60.6764 200.409 60.8633C199.926 61.0456 199.325 61.1367 198.604 61.1367C198.071 61.1367 197.613 61.1025 197.23 61.0342C196.852 60.9658 196.469 60.8519 196.082 60.6924V58.9697C196.497 59.1566 196.941 59.3115 197.415 59.4346C197.894 59.5531 198.313 59.6123 198.673 59.6123C199.078 59.6123 199.368 59.5531 199.541 59.4346C199.719 59.3115 199.808 59.152 199.808 58.9561C199.808 58.8285 199.771 58.7145 199.698 58.6143C199.63 58.5094 199.479 58.3932 199.247 58.2656C199.015 58.1335 198.65 57.9626 198.153 57.7529C197.675 57.5524 197.281 57.3496 196.971 57.1445C196.665 56.9395 196.438 56.6979 196.287 56.4199C196.141 56.1374 196.068 55.7796 196.068 55.3467C196.068 54.6403 196.342 54.1094 196.889 53.7539C197.44 53.3939 198.176 53.2139 199.097 53.2139C199.571 53.2139 200.022 53.2617 200.45 53.3574C200.883 53.4531 201.327 53.6058 201.783 53.8154L201.154 55.3193C200.776 55.1553 200.418 55.0208 200.081 54.916C199.748 54.8112 199.409 54.7588 199.062 54.7588C198.757 54.7588 198.527 54.7998 198.372 54.8818C198.217 54.9639 198.14 55.0892 198.14 55.2578C198.14 55.3809 198.178 55.4902 198.256 55.5859C198.338 55.6816 198.493 55.7887 198.721 55.9072C198.953 56.0212 199.293 56.1693 199.739 56.3516C200.172 56.5293 200.548 56.7161 200.867 56.9121C201.186 57.1035 201.432 57.3428 201.605 57.6299C201.779 57.9124 201.865 58.2793 201.865 58.7305ZM208.824 58.7305C208.824 59.25 208.701 59.6898 208.455 60.0498C208.214 60.4053 207.851 60.6764 207.368 60.8633C206.885 61.0456 206.284 61.1367 205.563 61.1367C205.03 61.1367 204.572 61.1025 204.189 61.0342C203.811 60.9658 203.428 60.8519 203.041 60.6924V58.9697C203.456 59.1566 203.9 59.3115 204.374 59.4346C204.853 59.5531 205.272 59.6123 205.632 59.6123C206.037 59.6123 206.327 59.5531 206.5 59.4346C206.678 59.3115 206.767 59.152 206.767 58.9561C206.767 58.8285 206.73 58.7145 206.657 58.6143C206.589 58.5094 206.438 58.3932 206.206 58.2656C205.974 58.1335 205.609 57.9626 205.112 57.7529C204.634 57.5524 204.24 57.3496 203.93 57.1445C203.624 56.9395 203.396 56.6979 203.246 56.4199C203.1 56.1374 203.027 55.7796 203.027 55.3467C203.027 54.6403 203.301 54.1094 203.848 53.7539C204.399 53.3939 205.135 53.2139 206.056 53.2139C206.53 53.2139 206.981 53.2617 207.409 53.3574C207.842 53.4531 208.286 53.6058 208.742 53.8154L208.113 55.3193C207.735 55.1553 207.377 55.0208 207.04 54.916C206.707 54.8112 206.368 54.7588 206.021 54.7588C205.716 54.7588 205.486 54.7998 205.331 54.8818C205.176 54.9639 205.099 55.0892 205.099 55.2578C205.099 55.3809 205.137 55.4902 205.215 55.5859C205.297 55.6816 205.452 55.7887 205.68 55.9072C205.912 56.0212 206.252 56.1693 206.698 56.3516C207.131 56.5293 207.507 56.7161 207.826 56.9121C208.145 57.1035 208.391 57.3428 208.564 57.6299C208.738 57.9124 208.824 58.2793 208.824 58.7305ZM212.536 53.3574V61H210.451V53.3574H212.536ZM211.497 50.3633C211.807 50.3633 212.074 50.4362 212.297 50.582C212.52 50.7233 212.632 50.9899 212.632 51.3818C212.632 51.7692 212.52 52.0381 212.297 52.1885C212.074 52.3343 211.807 52.4072 211.497 52.4072C211.183 52.4072 210.914 52.3343 210.69 52.1885C210.472 52.0381 210.362 51.7692 210.362 51.3818C210.362 50.9899 210.472 50.7233 210.69 50.582C210.914 50.4362 211.183 50.3633 211.497 50.3633ZM218.955 54.9229H217.15V61H215.065V54.9229H213.917V53.918L215.065 53.3574V52.7969C215.065 52.1452 215.175 51.6393 215.394 51.2793C215.617 50.9147 215.929 50.6595 216.33 50.5137C216.736 50.3633 217.214 50.2881 217.766 50.2881C218.171 50.2881 218.54 50.3223 218.873 50.3906C219.206 50.4544 219.477 50.5273 219.687 50.6094L219.153 52.1406C218.994 52.0905 218.821 52.0449 218.634 52.0039C218.447 51.9629 218.233 51.9424 217.991 51.9424C217.7 51.9424 217.485 52.0312 217.349 52.209C217.216 52.3822 217.15 52.6055 217.15 52.8789V53.3574H218.955V54.9229ZM222.236 53.3574V61H220.151V53.3574H222.236ZM221.197 50.3633C221.507 50.3633 221.774 50.4362 221.997 50.582C222.22 50.7233 222.332 50.9899 222.332 51.3818C222.332 51.7692 222.22 52.0381 221.997 52.1885C221.774 52.3343 221.507 52.4072 221.197 52.4072C220.883 52.4072 220.614 52.3343 220.391 52.1885C220.172 52.0381 220.062 51.7692 220.062 51.3818C220.062 50.9899 220.172 50.7233 220.391 50.582C220.614 50.4362 220.883 50.3633 221.197 50.3633ZM227.527 61.1367C226.771 61.1367 226.126 61 225.593 60.7266C225.06 60.4486 224.654 60.0202 224.376 59.4414C224.098 58.8626 223.959 58.1221 223.959 57.2197C223.959 56.2855 224.116 55.5244 224.431 54.9365C224.75 54.3441 225.189 53.9089 225.75 53.6309C226.315 53.3529 226.969 53.2139 227.712 53.2139C228.241 53.2139 228.696 53.2663 229.079 53.3711C229.466 53.4714 229.804 53.5921 230.091 53.7334L229.476 55.3467C229.147 55.2145 228.842 55.1074 228.56 55.0254C228.277 54.9388 227.994 54.8955 227.712 54.8955C227.347 54.8955 227.044 54.9821 226.803 55.1553C226.561 55.3239 226.381 55.5791 226.263 55.9209C226.144 56.2627 226.085 56.6911 226.085 57.2061C226.085 57.7119 226.149 58.1312 226.276 58.4639C226.404 58.7965 226.589 59.0449 226.83 59.209C227.072 59.3685 227.366 59.4482 227.712 59.4482C228.145 59.4482 228.53 59.3913 228.867 59.2773C229.204 59.1589 229.533 58.9948 229.852 58.7852V60.5693C229.533 60.7699 229.198 60.9134 228.847 61C228.5 61.0911 228.061 61.1367 227.527 61.1367ZM234.76 53.2002C235.785 53.2002 236.571 53.4235 237.118 53.8701C237.665 54.3167 237.938 54.9958 237.938 55.9072V61H236.482L236.079 59.9609H236.024C235.806 60.2344 235.582 60.4577 235.354 60.6309C235.127 60.804 234.865 60.9316 234.568 61.0137C234.272 61.0957 233.912 61.1367 233.488 61.1367C233.037 61.1367 232.632 61.0501 232.271 60.877C231.916 60.7038 231.636 60.4395 231.431 60.084C231.226 59.724 231.123 59.2682 231.123 58.7168C231.123 57.9056 231.408 57.3086 231.978 56.9258C232.547 56.5384 233.402 56.3242 234.541 56.2832L235.867 56.2422V55.9072C235.867 55.5062 235.762 55.2122 235.553 55.0254C235.343 54.8385 235.051 54.7451 234.678 54.7451C234.309 54.7451 233.946 54.7975 233.591 54.9023C233.235 55.0072 232.88 55.1393 232.524 55.2988L231.834 53.8906C232.24 53.6764 232.693 53.5078 233.194 53.3848C233.7 53.2617 234.222 53.2002 234.76 53.2002ZM235.867 57.459L235.061 57.4863C234.386 57.5046 233.917 57.6253 233.652 57.8486C233.393 58.0719 233.263 58.3659 233.263 58.7305C233.263 59.0495 233.356 59.2773 233.543 59.4141C233.73 59.5462 233.974 59.6123 234.274 59.6123C234.721 59.6123 235.097 59.4801 235.402 59.2158C235.712 58.9515 235.867 58.5755 235.867 58.0879V57.459ZM243.312 59.4756C243.539 59.4756 243.76 59.4528 243.975 59.4072C244.193 59.3617 244.41 59.3047 244.624 59.2363V60.7881C244.401 60.8883 244.123 60.9704 243.79 61.0342C243.462 61.1025 243.102 61.1367 242.71 61.1367C242.254 61.1367 241.844 61.0638 241.479 60.918C241.119 60.7676 240.835 60.5101 240.625 60.1455C240.42 59.7764 240.317 59.2637 240.317 58.6074V54.9229H239.319V54.041L240.468 53.3438L241.069 51.7305H242.402V53.3574H244.542V54.9229H242.402V58.6074C242.402 58.8991 242.484 59.1178 242.648 59.2637C242.817 59.4049 243.038 59.4756 243.312 59.4756ZM248.261 53.3574V61H246.176V53.3574H248.261ZM247.222 50.3633C247.532 50.3633 247.798 50.4362 248.021 50.582C248.245 50.7233 248.356 50.9899 248.356 51.3818C248.356 51.7692 248.245 52.0381 248.021 52.1885C247.798 52.3343 247.532 52.4072 247.222 52.4072C246.907 52.4072 246.638 52.3343 246.415 52.1885C246.196 52.0381 246.087 51.7692 246.087 51.3818C246.087 50.9899 246.196 50.7233 246.415 50.582C246.638 50.4362 246.907 50.3633 247.222 50.3633ZM257.4 57.165C257.4 57.8031 257.314 58.3682 257.141 58.8604C256.972 59.3525 256.724 59.7695 256.396 60.1113C256.072 60.4486 255.68 60.7038 255.22 60.877C254.764 61.0501 254.249 61.1367 253.675 61.1367C253.137 61.1367 252.643 61.0501 252.191 60.877C251.745 60.7038 251.355 60.4486 251.022 60.1113C250.694 59.7695 250.439 59.3525 250.257 58.8604C250.079 58.3682 249.99 57.8031 249.99 57.165C249.99 56.3174 250.141 55.5996 250.441 55.0117C250.742 54.4238 251.171 53.9772 251.727 53.6719C252.283 53.3665 252.946 53.2139 253.716 53.2139C254.431 53.2139 255.065 53.3665 255.616 53.6719C256.172 53.9772 256.607 54.4238 256.922 55.0117C257.241 55.5996 257.4 56.3174 257.4 57.165ZM252.116 57.165C252.116 57.6663 252.171 58.0879 252.28 58.4297C252.39 58.7715 252.561 59.029 252.793 59.2021C253.025 59.3753 253.328 59.4619 253.702 59.4619C254.071 59.4619 254.37 59.3753 254.598 59.2021C254.83 59.029 254.999 58.7715 255.104 58.4297C255.213 58.0879 255.268 57.6663 255.268 57.165C255.268 56.6592 255.213 56.2399 255.104 55.9072C254.999 55.57 254.83 55.3171 254.598 55.1484C254.365 54.9798 254.062 54.8955 253.688 54.8955C253.137 54.8955 252.736 55.0846 252.485 55.4629C252.239 55.8411 252.116 56.4085 252.116 57.165ZM263.464 53.2139C264.28 53.2139 264.936 53.4372 265.433 53.8838C265.929 54.3258 266.178 55.0368 266.178 56.0166V61H264.093V56.5361C264.093 55.9893 263.993 55.5768 263.792 55.2988C263.596 55.0208 263.286 54.8818 262.862 54.8818C262.224 54.8818 261.789 55.0983 261.557 55.5312C261.324 55.9642 261.208 56.5885 261.208 57.4043V61H259.123V53.3574H260.716L260.996 54.335H261.112C261.276 54.0706 261.479 53.8564 261.721 53.6924C261.967 53.5283 262.238 53.4076 262.534 53.3301C262.835 53.2526 263.145 53.2139 263.464 53.2139Z" fill="#A3B7EE"/>
<path d="M231.902 74.7617C232.484 74.7617 232.99 74.8613 233.42 75.0605C233.85 75.2559 234.182 75.541 234.416 75.916C234.654 76.291 234.773 76.7461 234.773 77.2812C234.773 77.8672 234.646 78.373 234.393 78.7988C234.139 79.2207 233.773 79.5469 233.297 79.7773C232.82 80.0039 232.25 80.1172 231.586 80.1172C231.141 80.1172 230.727 80.0781 230.344 80C229.961 79.9219 229.639 79.8047 229.377 79.6484V78.7227C229.662 78.8945 230.008 79.0312 230.414 79.1328C230.82 79.2344 231.215 79.2852 231.598 79.2852C232.031 79.2852 232.41 79.2168 232.734 79.0801C233.062 78.9395 233.316 78.7285 233.496 78.4473C233.68 78.1621 233.771 77.8047 233.771 77.375C233.771 76.8047 233.596 76.3652 233.244 76.0566C232.896 75.7441 232.346 75.5879 231.592 75.5879C231.35 75.5879 231.084 75.6074 230.795 75.6465C230.506 75.6855 230.268 75.7285 230.08 75.7754L229.588 75.4531L229.916 71.4336H234.176V72.3242H230.748L230.531 74.9082C230.68 74.877 230.871 74.8457 231.105 74.8145C231.34 74.7793 231.605 74.7617 231.902 74.7617ZM237.809 71.3105C238.395 71.3105 238.838 71.5449 239.139 72.0137C239.443 72.4785 239.596 73.1367 239.596 73.9883C239.596 74.8398 239.449 75.5039 239.156 75.9805C238.863 76.4531 238.414 76.6895 237.809 76.6895C237.246 76.6895 236.814 76.4531 236.514 75.9805C236.217 75.5039 236.068 74.8398 236.068 73.9883C236.068 73.1367 236.211 72.4785 236.496 72.0137C236.781 71.5449 237.219 71.3105 237.809 71.3105ZM237.809 72.0078C237.492 72.0078 237.26 72.1738 237.111 72.5059C236.963 72.834 236.889 73.3281 236.889 73.9883C236.889 74.6484 236.963 75.1465 237.111 75.4824C237.26 75.8184 237.492 75.9863 237.809 75.9863C238.137 75.9863 238.381 75.8184 238.541 75.4824C238.701 75.1465 238.781 74.6484 238.781 73.9883C238.781 73.332 238.701 72.8379 238.541 72.5059C238.385 72.1738 238.141 72.0078 237.809 72.0078ZM243.234 71.4336L238.482 80H237.627L242.379 71.4336H243.234ZM243.006 74.7441C243.588 74.7441 244.031 74.9785 244.336 75.4473C244.641 75.9121 244.793 76.5703 244.793 77.4219C244.793 78.2695 244.646 78.9316 244.354 79.4082C244.061 79.8809 243.611 80.1172 243.006 80.1172C242.439 80.1172 242.008 79.8809 241.711 79.4082C241.414 78.9316 241.266 78.2695 241.266 77.4219C241.266 76.5703 241.406 75.9121 241.688 75.4473C241.973 74.9785 242.412 74.7441 243.006 74.7441ZM243.006 75.4473C242.689 75.4473 242.457 75.6113 242.309 75.9395C242.16 76.2676 242.086 76.7617 242.086 77.4219C242.086 78.082 242.16 78.5801 242.309 78.916C242.457 79.248 242.689 79.4141 243.006 79.4141C243.334 79.4141 243.578 79.25 243.738 78.9219C243.898 78.5898 243.979 78.0898 243.979 77.4219C243.979 76.7656 243.898 76.2734 243.738 75.9453C243.582 75.6133 243.338 75.4473 243.006 75.4473Z" fill="#506073"/>
<path d="M272.5 60L382.5 60" stroke="#9BA7B6" stroke-width="2"/>
<path d="M382.5 60L390.5 92" stroke="#9BA7B6" stroke-width="2"/>
<path fill-rule="evenodd" clip-rule="evenodd" d="M409.5 93.0348C409.5 91.3663 408.138 90.0138 406.471 90.0805C394.756 90.5494 383.565 93.0541 373.242 97.2504C371.697 97.8786 371.017 99.6728 371.707 101.191L379.159 117.595C379.838 119.09 381.591 119.755 383.119 119.155C390.436 116.285 398.313 114.531 406.541 114.103C408.18 114.017 409.5 112.687 409.5 111.045V93.0348Z" fill="#E07941"/>
<path d="M400.915 203.236H399.343V206H395.534V203.236H389.841V200.404L395.778 191.723H399.343V200.355H400.915V203.236ZM395.534 200.355V198.695C395.534 198.546 395.537 198.357 395.544 198.129C395.55 197.901 395.557 197.673 395.563 197.445C395.576 197.211 395.586 197.016 395.593 196.859C395.606 196.697 395.615 196.609 395.622 196.596H395.514C395.391 196.889 395.277 197.133 395.173 197.328C395.068 197.517 394.932 197.742 394.763 198.002L393.18 200.355H395.534ZM412.033 198.881C412.033 200.027 411.942 201.052 411.76 201.957C411.577 202.855 411.285 203.62 410.881 204.252C410.484 204.883 409.956 205.365 409.299 205.697C408.641 206.029 407.834 206.195 406.877 206.195C405.686 206.195 404.709 205.906 403.947 205.326C403.186 204.74 402.622 203.904 402.258 202.816C401.9 201.723 401.721 200.411 401.721 198.881C401.721 197.338 401.883 196.02 402.209 194.926C402.541 193.826 403.085 192.982 403.84 192.396C404.595 191.811 405.607 191.518 406.877 191.518C408.068 191.518 409.042 191.811 409.797 192.396C410.559 192.976 411.122 193.816 411.486 194.916C411.851 196.01 412.033 197.331 412.033 198.881ZM405.559 198.881C405.559 199.812 405.591 200.593 405.656 201.225C405.728 201.856 405.858 202.331 406.047 202.65C406.242 202.963 406.519 203.119 406.877 203.119C407.235 203.119 407.508 202.963 407.697 202.65C407.886 202.331 408.016 201.859 408.088 201.234C408.16 200.603 408.195 199.818 408.195 198.881C408.195 197.937 408.16 197.149 408.088 196.518C408.016 195.886 407.886 195.411 407.697 195.092C407.508 194.766 407.235 194.604 406.877 194.604C406.519 194.604 406.242 194.766 406.047 195.092C405.858 195.411 405.728 195.886 405.656 196.518C405.591 197.149 405.559 197.937 405.559 198.881ZM416.54 191.518C417.66 191.518 418.558 191.908 419.236 192.689C419.919 193.471 420.261 194.568 420.261 195.98C420.261 197.393 419.942 198.497 419.304 199.291C418.666 200.085 417.745 200.482 416.54 200.482C415.446 200.482 414.564 200.085 413.894 199.291C413.23 198.497 412.898 197.393 412.898 195.98C412.898 194.568 413.21 193.471 413.835 192.689C414.467 191.908 415.368 191.518 416.54 191.518ZM416.579 193.9C416.299 193.9 416.104 194.092 415.993 194.477C415.889 194.854 415.837 195.368 415.837 196.02C415.837 196.658 415.889 197.172 415.993 197.562C416.104 197.947 416.299 198.139 416.579 198.139C416.859 198.139 417.051 197.95 417.155 197.572C417.26 197.188 417.312 196.671 417.312 196.02C417.312 195.368 417.26 194.854 417.155 194.477C417.051 194.092 416.859 193.9 416.579 193.9ZM427.38 191.723L419.46 206H416.56L424.48 191.723H427.38ZM427.4 197.201C428.519 197.201 429.418 197.592 430.095 198.373C430.779 199.154 431.12 200.251 431.12 201.664C431.12 203.07 430.801 204.171 430.163 204.965C429.525 205.759 428.604 206.156 427.4 206.156C426.306 206.156 425.424 205.759 424.753 204.965C424.089 204.171 423.757 203.07 423.757 201.664C423.757 200.251 424.07 199.154 424.695 198.373C425.326 197.592 426.228 197.201 427.4 197.201ZM427.439 199.584C427.159 199.584 426.963 199.776 426.853 200.16C426.749 200.538 426.696 201.052 426.696 201.703C426.696 202.341 426.749 202.855 426.853 203.246C426.963 203.63 427.159 203.822 427.439 203.822C427.719 203.822 427.911 203.633 428.015 203.256C428.126 202.872 428.181 202.354 428.181 201.703C428.181 201.026 428.126 200.505 428.015 200.141C427.911 199.77 427.719 199.584 427.439 199.584Z" fill="#A3B7EE"/>
<rect x="4" y="422" width="14" height="14" rx="2" fill="#7879F1"/>
<path d="M32.0352 428.989C32.0352 429.759 31.9372 430.461 31.7412 431.095C31.5452 431.724 31.2536 432.266 30.8662 432.722C30.4834 433.173 30.0072 433.521 29.4375 433.768C28.8678 434.014 28.207 434.137 27.4551 434.137C26.6803 434.137 26.0036 434.014 25.4248 433.768C24.8506 433.521 24.3721 433.171 23.9893 432.715C23.611 432.259 23.3262 431.715 23.1348 431.081C22.9479 430.448 22.8545 429.746 22.8545 428.976C22.8545 427.955 23.0231 427.059 23.3604 426.289C23.6976 425.519 24.208 424.92 24.8916 424.491C25.5798 424.063 26.4411 423.849 27.4756 423.849C28.4645 423.849 29.2962 424.061 29.9707 424.484C30.6497 424.908 31.1624 425.505 31.5088 426.275C31.8597 427.041 32.0352 427.946 32.0352 428.989ZM24.0781 428.989C24.0781 429.837 24.1989 430.571 24.4404 431.19C24.682 431.81 25.0511 432.289 25.5479 432.626C26.0492 432.963 26.6849 433.132 27.4551 433.132C28.2298 433.132 28.8633 432.963 29.3555 432.626C29.8522 432.289 30.2191 431.81 30.4561 431.19C30.693 430.571 30.8115 429.837 30.8115 428.989C30.8115 427.7 30.5404 426.692 29.998 425.968C29.4603 425.239 28.6195 424.874 27.4756 424.874C26.7008 424.874 26.0628 425.04 25.5615 425.373C25.0602 425.706 24.6865 426.18 24.4404 426.795C24.1989 427.406 24.0781 428.137 24.0781 428.989ZM34.2637 434V424.006H35.4258V432.961H39.8623V434H34.2637ZM47.8467 434L46.6162 430.828H42.6104L41.3867 434H40.2109L44.1211 423.965H45.167L49.0498 434H47.8467ZM46.2676 429.796L45.0986 426.645C45.0713 426.562 45.0257 426.428 44.9619 426.241C44.9027 426.054 44.8411 425.861 44.7773 425.66C44.7135 425.46 44.6611 425.298 44.6201 425.175C44.5745 425.362 44.5244 425.549 44.4697 425.735C44.4196 425.918 44.3695 426.089 44.3193 426.248C44.2692 426.403 44.2259 426.535 44.1895 426.645L43 429.796H46.2676ZM53.0488 424.006C54.3385 424.006 55.2796 424.259 55.8721 424.765C56.4691 425.266 56.7676 425.986 56.7676 426.925C56.7676 427.349 56.6969 427.752 56.5557 428.135C56.4189 428.513 56.1956 428.848 55.8857 429.14C55.5758 429.427 55.168 429.655 54.6621 429.823C54.1608 429.987 53.5456 430.069 52.8164 430.069H51.5996V434H50.4375V424.006H53.0488ZM52.9395 424.997H51.5996V429.071H52.6865C53.3245 429.071 53.8555 429.003 54.2793 428.866C54.7077 428.729 55.029 428.508 55.2432 428.203C55.4574 427.893 55.5645 427.483 55.5645 426.973C55.5645 426.307 55.3525 425.813 54.9287 425.489C54.5049 425.161 53.8418 424.997 52.9395 424.997Z" fill="#A3B7EE"/>
<rect x="74" y="422" width="14" height="14" rx="2" fill="#C33D69"/>
<path d="M100.572 434H99.1982L95.5957 429.14L94.5293 430.097V434H93.3672V424.006H94.5293V428.989C94.7891 428.693 95.0557 428.399 95.3291 428.107C95.6025 427.811 95.8737 427.513 96.1426 427.212L99.0615 424.006H100.422L96.4434 428.34L100.572 434ZM109.876 428.907C109.876 430.033 109.671 430.974 109.261 431.73C108.851 432.482 108.256 433.05 107.477 433.433C106.702 433.811 105.761 434 104.653 434H101.939V424.006H104.954C105.97 424.006 106.845 424.193 107.579 424.566C108.313 424.936 108.878 425.485 109.274 426.214C109.675 426.938 109.876 427.836 109.876 428.907ZM108.652 428.948C108.652 428.05 108.502 427.31 108.201 426.727C107.905 426.143 107.467 425.71 106.889 425.428C106.314 425.141 105.61 424.997 104.776 424.997H103.102V433.002H104.517C105.893 433.002 106.925 432.662 107.613 431.983C108.306 431.304 108.652 430.293 108.652 428.948ZM120.034 428.907C120.034 430.033 119.829 430.974 119.419 431.73C119.009 432.482 118.414 433.05 117.635 433.433C116.86 433.811 115.919 434 114.812 434H112.098V424.006H115.112C116.129 424.006 117.004 424.193 117.737 424.566C118.471 424.936 119.036 425.485 119.433 426.214C119.834 426.938 120.034 427.836 120.034 428.907ZM118.811 428.948C118.811 428.05 118.66 427.31 118.359 426.727C118.063 426.143 117.626 425.71 117.047 425.428C116.473 425.141 115.769 424.997 114.935 424.997H113.26V433.002H114.675C116.051 433.002 117.083 432.662 117.771 431.983C118.464 431.304 118.811 430.293 118.811 428.948Z" fill="#A3B7EE"/>
<rect x="137" y="422" width="14" height="14" rx="2" fill="#2EA597"/>
<path d="M165.035 428.989C165.035 429.759 164.937 430.461 164.741 431.095C164.545 431.724 164.254 432.266 163.866 432.722C163.483 433.173 163.007 433.521 162.438 433.768C161.868 434.014 161.207 434.137 160.455 434.137C159.68 434.137 159.004 434.014 158.425 433.768C157.851 433.521 157.372 433.171 156.989 432.715C156.611 432.259 156.326 431.715 156.135 431.081C155.948 430.448 155.854 429.746 155.854 428.976C155.854 427.955 156.023 427.059 156.36 426.289C156.698 425.519 157.208 424.92 157.892 424.491C158.58 424.063 159.441 423.849 160.476 423.849C161.465 423.849 162.296 424.061 162.971 424.484C163.65 424.908 164.162 425.505 164.509 426.275C164.86 427.041 165.035 427.946 165.035 428.989ZM157.078 428.989C157.078 429.837 157.199 430.571 157.44 431.19C157.682 431.81 158.051 432.289 158.548 432.626C159.049 432.963 159.685 433.132 160.455 433.132C161.23 433.132 161.863 432.963 162.355 432.626C162.852 432.289 163.219 431.81 163.456 431.19C163.693 430.571 163.812 429.837 163.812 428.989C163.812 427.7 163.54 426.692 162.998 425.968C162.46 425.239 161.619 424.874 160.476 424.874C159.701 424.874 159.063 425.04 158.562 425.373C158.06 425.706 157.687 426.18 157.44 426.795C157.199 427.406 157.078 428.137 157.078 428.989ZM169.964 424.006C170.784 424.006 171.461 424.108 171.994 424.313C172.532 424.514 172.933 424.822 173.197 425.236C173.462 425.651 173.594 426.18 173.594 426.822C173.594 427.351 173.498 427.793 173.307 428.148C173.115 428.499 172.865 428.784 172.555 429.003C172.245 429.222 171.914 429.39 171.563 429.509L174.305 434H172.951L170.504 429.83H168.426V434H167.264V424.006H169.964ZM169.896 425.011H168.426V428.846H170.012C170.827 428.846 171.427 428.679 171.81 428.347C172.197 428.014 172.391 427.524 172.391 426.877C172.391 426.198 172.186 425.717 171.775 425.435C171.37 425.152 170.743 425.011 169.896 425.011ZM183.841 428.907C183.841 430.033 183.636 430.974 183.226 431.73C182.815 432.482 182.221 433.05 181.441 433.433C180.667 433.811 179.726 434 178.618 434H175.904V424.006H178.919C179.935 424.006 180.81 424.193 181.544 424.566C182.278 424.936 182.843 425.485 183.239 426.214C183.64 426.938 183.841 427.836 183.841 428.907ZM182.617 428.948C182.617 428.05 182.467 427.31 182.166 426.727C181.87 426.143 181.432 425.71 180.854 425.428C180.279 425.141 179.575 424.997 178.741 424.997H177.066V433.002H178.481C179.858 433.002 180.89 432.662 181.578 431.983C182.271 431.304 182.617 430.293 182.617 428.948ZM186.062 424.006H188.893C190.141 424.006 191.08 424.193 191.709 424.566C192.338 424.94 192.652 425.576 192.652 426.474C192.652 426.861 192.577 427.21 192.427 427.52C192.281 427.825 192.067 428.078 191.784 428.278C191.502 428.479 191.153 428.618 190.738 428.695V428.764C191.176 428.832 191.563 428.957 191.9 429.14C192.238 429.322 192.502 429.577 192.693 429.905C192.885 430.233 192.98 430.65 192.98 431.156C192.98 431.771 192.837 432.291 192.55 432.715C192.267 433.139 191.866 433.46 191.347 433.679C190.827 433.893 190.212 434 189.501 434H186.062V424.006ZM187.225 428.292H189.139C190.009 428.292 190.611 428.148 190.943 427.861C191.281 427.574 191.449 427.155 191.449 426.604C191.449 426.034 191.249 425.624 190.848 425.373C190.451 425.122 189.818 424.997 188.947 424.997H187.225V428.292ZM187.225 429.27V433.009H189.303C190.191 433.009 190.82 432.836 191.189 432.489C191.559 432.138 191.743 431.667 191.743 431.074C191.743 430.696 191.659 430.372 191.49 430.104C191.326 429.835 191.057 429.63 190.684 429.488C190.314 429.342 189.82 429.27 189.2 429.27H187.225ZM199.509 434L196.152 425.154H196.098C196.116 425.341 196.132 425.569 196.146 425.838C196.159 426.107 196.171 426.401 196.18 426.72C196.189 427.034 196.193 427.355 196.193 427.684V434H195.113V424.006H196.836L200.001 432.318H200.049L203.262 424.006H204.971V434H203.822V427.602C203.822 427.305 203.827 427.009 203.836 426.713C203.845 426.412 203.856 426.13 203.87 425.865C203.884 425.596 203.897 425.364 203.911 425.168H203.856L200.459 434H199.509ZM213.345 431.341C213.345 431.933 213.197 432.439 212.9 432.858C212.609 433.273 212.199 433.59 211.67 433.809C211.141 434.027 210.519 434.137 209.804 434.137C209.425 434.137 209.068 434.118 208.73 434.082C208.393 434.046 208.083 433.993 207.801 433.925C207.518 433.856 207.27 433.772 207.056 433.672V432.558C207.397 432.699 207.814 432.831 208.307 432.954C208.799 433.073 209.314 433.132 209.852 433.132C210.353 433.132 210.777 433.066 211.123 432.934C211.469 432.797 211.731 432.603 211.909 432.353C212.091 432.097 212.183 431.792 212.183 431.437C212.183 431.095 212.107 430.81 211.957 430.582C211.807 430.35 211.556 430.14 211.205 429.953C210.859 429.762 210.385 429.559 209.783 429.345C209.359 429.194 208.986 429.03 208.662 428.853C208.339 428.67 208.067 428.465 207.849 428.237C207.63 428.009 207.464 427.745 207.35 427.444C207.24 427.144 207.186 426.799 207.186 426.412C207.186 425.879 207.32 425.423 207.589 425.045C207.862 424.662 208.238 424.37 208.717 424.17C209.2 423.965 209.754 423.862 210.378 423.862C210.911 423.862 211.403 423.912 211.854 424.013C212.31 424.113 212.727 424.247 213.105 424.416L212.743 425.414C212.383 425.264 212 425.138 211.595 425.038C211.194 424.938 210.779 424.888 210.351 424.888C209.922 424.888 209.56 424.951 209.264 425.079C208.972 425.202 208.749 425.378 208.594 425.605C208.439 425.833 208.361 426.104 208.361 426.419C208.361 426.77 208.434 427.062 208.58 427.294C208.73 427.526 208.967 427.734 209.291 427.916C209.619 428.094 210.052 428.281 210.59 428.477C211.178 428.691 211.677 428.919 212.087 429.16C212.497 429.397 212.809 429.689 213.023 430.035C213.238 430.377 213.345 430.812 213.345 431.341Z" fill="#A3B7EE"/>
<rect x="231" y="422" width="14" height="14" rx="2" fill="#8456CE"/>
<path d="M254.763 434L251.406 425.154H251.352C251.37 425.341 251.386 425.569 251.399 425.838C251.413 426.107 251.424 426.401 251.434 426.72C251.443 427.034 251.447 427.355 251.447 427.684V434H250.367V424.006H252.09L255.255 432.318H255.303L258.516 424.006H260.225V434H259.076V427.602C259.076 427.305 259.081 427.009 259.09 426.713C259.099 426.412 259.11 426.13 259.124 425.865C259.138 425.596 259.151 425.364 259.165 425.168H259.11L255.713 434H254.763ZM269.248 430.24C269.248 430.855 269.168 431.405 269.009 431.888C268.849 432.371 268.619 432.779 268.318 433.111C268.018 433.444 267.653 433.699 267.225 433.877C266.801 434.05 266.32 434.137 265.782 434.137C265.281 434.137 264.821 434.05 264.401 433.877C263.987 433.699 263.627 433.444 263.321 433.111C263.021 432.779 262.786 432.371 262.617 431.888C262.453 431.405 262.371 430.855 262.371 430.24C262.371 429.42 262.51 428.723 262.788 428.148C263.066 427.57 263.463 427.13 263.978 426.829C264.497 426.524 265.115 426.371 265.83 426.371C266.514 426.371 267.111 426.524 267.621 426.829C268.136 427.134 268.535 427.576 268.817 428.155C269.104 428.729 269.248 429.424 269.248 430.24ZM263.547 430.24C263.547 430.842 263.627 431.364 263.786 431.806C263.946 432.248 264.192 432.59 264.524 432.831C264.857 433.073 265.285 433.193 265.81 433.193C266.329 433.193 266.755 433.073 267.088 432.831C267.425 432.59 267.674 432.248 267.833 431.806C267.993 431.364 268.072 430.842 268.072 430.24C268.072 429.643 267.993 429.128 267.833 428.695C267.674 428.258 267.427 427.921 267.095 427.684C266.762 427.447 266.331 427.328 265.803 427.328C265.023 427.328 264.451 427.586 264.087 428.101C263.727 428.616 263.547 429.329 263.547 430.24ZM273.876 434.137C272.928 434.137 272.176 433.813 271.62 433.166C271.069 432.519 270.793 431.557 270.793 430.281C270.793 428.992 271.076 428.019 271.641 427.362C272.206 426.701 272.958 426.371 273.896 426.371C274.293 426.371 274.639 426.424 274.936 426.528C275.232 426.633 275.487 426.774 275.701 426.952C275.915 427.125 276.095 427.324 276.241 427.547H276.323C276.305 427.406 276.287 427.212 276.269 426.966C276.25 426.72 276.241 426.519 276.241 426.364V423.363H277.376V434H276.46L276.289 432.934H276.241C276.1 433.157 275.92 433.36 275.701 433.542C275.487 433.724 275.229 433.87 274.929 433.979C274.632 434.084 274.282 434.137 273.876 434.137ZM274.054 433.193C274.856 433.193 275.423 432.965 275.756 432.51C276.089 432.054 276.255 431.377 276.255 430.479V430.274C276.255 429.322 276.095 428.59 275.776 428.08C275.462 427.57 274.888 427.314 274.054 427.314C273.356 427.314 272.835 427.583 272.488 428.121C272.142 428.654 271.969 429.383 271.969 430.309C271.969 431.229 272.14 431.94 272.481 432.441C272.828 432.943 273.352 433.193 274.054 433.193ZM282.667 426.371C283.305 426.371 283.852 426.512 284.308 426.795C284.763 427.077 285.112 427.474 285.354 427.984C285.595 428.49 285.716 429.083 285.716 429.762V430.466H280.541C280.555 431.345 280.773 432.015 281.197 432.476C281.621 432.936 282.218 433.166 282.988 433.166C283.462 433.166 283.882 433.123 284.246 433.036C284.611 432.95 284.989 432.822 285.381 432.653V433.651C285.003 433.82 284.627 433.943 284.253 434.021C283.884 434.098 283.446 434.137 282.94 434.137C282.22 434.137 281.591 433.991 281.054 433.699C280.521 433.403 280.106 432.97 279.81 432.4C279.513 431.831 279.365 431.133 279.365 430.309C279.365 429.502 279.5 428.805 279.769 428.217C280.042 427.624 280.425 427.169 280.917 426.85C281.414 426.531 281.997 426.371 282.667 426.371ZM282.653 427.301C282.047 427.301 281.564 427.499 281.204 427.896C280.844 428.292 280.63 428.846 280.562 429.557H284.526C284.522 429.11 284.451 428.718 284.314 428.381C284.182 428.039 283.979 427.775 283.706 427.588C283.433 427.396 283.082 427.301 282.653 427.301ZM288.785 434H287.644V423.363H288.785V434ZM292.319 426.508V434H291.185V426.508H292.319ZM291.766 423.705C291.952 423.705 292.112 423.767 292.244 423.89C292.381 424.008 292.449 424.195 292.449 424.45C292.449 424.701 292.381 424.888 292.244 425.011C292.112 425.134 291.952 425.195 291.766 425.195C291.57 425.195 291.406 425.134 291.273 425.011C291.146 424.888 291.082 424.701 291.082 424.45C291.082 424.195 291.146 424.008 291.273 423.89C291.406 423.767 291.57 423.705 291.766 423.705ZM298.273 426.371C299.162 426.371 299.834 426.59 300.29 427.027C300.746 427.46 300.974 428.158 300.974 429.119V434H299.853V429.194C299.853 428.57 299.709 428.103 299.422 427.793C299.139 427.483 298.704 427.328 298.116 427.328C297.287 427.328 296.703 427.563 296.366 428.032C296.029 428.502 295.86 429.183 295.86 430.076V434H294.726V426.508H295.642L295.812 427.588H295.874C296.034 427.324 296.236 427.103 296.482 426.925C296.729 426.743 297.004 426.606 297.31 426.515C297.615 426.419 297.936 426.371 298.273 426.371ZM305.403 437.363C304.419 437.363 303.66 437.179 303.127 436.81C302.594 436.445 302.327 435.932 302.327 435.271C302.327 434.802 302.475 434.401 302.771 434.068C303.072 433.736 303.487 433.515 304.016 433.405C303.82 433.314 303.651 433.177 303.51 432.995C303.373 432.813 303.305 432.603 303.305 432.366C303.305 432.093 303.38 431.854 303.53 431.648C303.685 431.439 303.92 431.238 304.234 431.047C303.842 430.887 303.523 430.618 303.277 430.24C303.036 429.857 302.915 429.413 302.915 428.907C302.915 428.369 303.027 427.911 303.25 427.533C303.473 427.15 303.797 426.859 304.221 426.658C304.645 426.458 305.157 426.357 305.759 426.357C305.891 426.357 306.023 426.364 306.155 426.378C306.292 426.387 306.422 426.403 306.545 426.426C306.668 426.444 306.775 426.467 306.866 426.494H309.437V427.226L308.056 427.396C308.192 427.574 308.306 427.788 308.397 428.039C308.489 428.29 308.534 428.568 308.534 428.873C308.534 429.62 308.281 430.215 307.775 430.657C307.27 431.095 306.575 431.313 305.69 431.313C305.481 431.313 305.267 431.295 305.048 431.259C304.825 431.382 304.654 431.519 304.535 431.669C304.421 431.819 304.364 431.993 304.364 432.188C304.364 432.334 304.408 432.451 304.494 432.537C304.585 432.624 304.715 432.688 304.884 432.729C305.052 432.765 305.255 432.783 305.492 432.783H306.812C307.627 432.783 308.252 432.954 308.685 433.296C309.122 433.638 309.341 434.137 309.341 434.793C309.341 435.622 309.004 436.258 308.329 436.7C307.655 437.142 306.679 437.363 305.403 437.363ZM305.438 436.475C306.057 436.475 306.57 436.411 306.976 436.283C307.386 436.16 307.691 435.98 307.892 435.743C308.097 435.511 308.199 435.233 308.199 434.909C308.199 434.608 308.131 434.381 307.994 434.226C307.857 434.075 307.657 433.975 307.393 433.925C307.128 433.87 306.805 433.843 306.422 433.843H305.123C304.786 433.843 304.492 433.895 304.241 434C303.991 434.105 303.797 434.26 303.66 434.465C303.528 434.67 303.462 434.925 303.462 435.23C303.462 435.636 303.633 435.944 303.975 436.153C304.316 436.368 304.804 436.475 305.438 436.475ZM305.731 430.486C306.274 430.486 306.682 430.35 306.955 430.076C307.229 429.803 307.365 429.404 307.365 428.88C307.365 428.319 307.226 427.9 306.948 427.622C306.67 427.34 306.26 427.198 305.718 427.198C305.198 427.198 304.797 427.344 304.515 427.636C304.237 427.923 304.098 428.344 304.098 428.9C304.098 429.411 304.239 429.803 304.521 430.076C304.804 430.35 305.207 430.486 305.731 430.486Z" fill="#A3B7EE"/>
<rect x="326" y="422" width="14" height="14" rx="2" fill="#E07941"/>
<path d="M349.64 424.888C349.088 424.888 348.591 424.983 348.149 425.175C347.712 425.362 347.338 425.635 347.028 425.995C346.723 426.351 346.488 426.781 346.324 427.287C346.16 427.793 346.078 428.363 346.078 428.996C346.078 429.835 346.208 430.564 346.468 431.184C346.732 431.799 347.124 432.275 347.644 432.612C348.168 432.95 348.822 433.118 349.605 433.118C350.052 433.118 350.471 433.082 350.863 433.009C351.26 432.931 351.645 432.836 352.019 432.722V433.733C351.654 433.87 351.271 433.97 350.87 434.034C350.469 434.103 349.993 434.137 349.441 434.137C348.425 434.137 347.575 433.927 346.892 433.508C346.213 433.084 345.702 432.487 345.36 431.717C345.023 430.947 344.854 430.037 344.854 428.989C344.854 428.233 344.959 427.542 345.169 426.918C345.383 426.289 345.693 425.747 346.099 425.291C346.509 424.835 347.01 424.484 347.603 424.238C348.2 423.988 348.883 423.862 349.653 423.862C350.159 423.862 350.647 423.912 351.116 424.013C351.586 424.113 352.009 424.257 352.388 424.443L351.923 425.428C351.604 425.282 351.253 425.157 350.87 425.052C350.492 424.942 350.082 424.888 349.64 424.888ZM355.156 434H354.015V423.363H355.156V434ZM360.358 426.385C361.252 426.385 361.915 426.585 362.348 426.986C362.781 427.387 362.997 428.028 362.997 428.907V434H362.17L361.951 432.893H361.896C361.687 433.166 361.468 433.396 361.24 433.583C361.012 433.765 360.748 433.904 360.447 434C360.151 434.091 359.786 434.137 359.354 434.137C358.898 434.137 358.492 434.057 358.137 433.897C357.786 433.738 357.508 433.496 357.303 433.173C357.102 432.849 357.002 432.439 357.002 431.942C357.002 431.195 357.298 430.621 357.891 430.22C358.483 429.819 359.385 429.6 360.598 429.563L361.89 429.509V429.051C361.89 428.404 361.751 427.95 361.473 427.69C361.195 427.431 360.803 427.301 360.297 427.301C359.905 427.301 359.531 427.358 359.176 427.472C358.82 427.586 358.483 427.72 358.164 427.875L357.815 427.014C358.153 426.84 358.54 426.692 358.978 426.569C359.415 426.446 359.875 426.385 360.358 426.385ZM361.876 430.309L360.734 430.356C359.8 430.393 359.142 430.546 358.759 430.814C358.376 431.083 358.185 431.464 358.185 431.956C358.185 432.384 358.314 432.701 358.574 432.906C358.834 433.111 359.178 433.214 359.606 433.214C360.272 433.214 360.816 433.029 361.24 432.66C361.664 432.291 361.876 431.737 361.876 430.999V430.309ZM370.182 431.949C370.182 432.428 370.061 432.831 369.819 433.159C369.582 433.483 369.241 433.727 368.794 433.891C368.352 434.055 367.823 434.137 367.208 434.137C366.684 434.137 366.23 434.096 365.848 434.014C365.465 433.932 365.13 433.815 364.843 433.665V432.619C365.148 432.77 365.513 432.906 365.937 433.029C366.36 433.152 366.793 433.214 367.235 433.214C367.882 433.214 368.352 433.109 368.644 432.899C368.935 432.69 369.081 432.405 369.081 432.045C369.081 431.84 369.022 431.66 368.903 431.505C368.789 431.345 368.596 431.193 368.322 431.047C368.049 430.896 367.671 430.732 367.188 430.555C366.709 430.372 366.294 430.192 365.943 430.015C365.597 429.832 365.328 429.611 365.137 429.352C364.95 429.092 364.856 428.755 364.856 428.34C364.856 427.706 365.112 427.221 365.622 426.884C366.137 426.542 366.812 426.371 367.646 426.371C368.097 426.371 368.518 426.417 368.91 426.508C369.307 426.594 369.676 426.713 370.018 426.863L369.635 427.772C369.325 427.64 368.994 427.529 368.644 427.438C368.293 427.346 367.935 427.301 367.57 427.301C367.046 427.301 366.643 427.387 366.36 427.561C366.082 427.734 365.943 427.971 365.943 428.271C365.943 428.504 366.007 428.695 366.135 428.846C366.267 428.996 366.477 429.137 366.764 429.27C367.051 429.402 367.429 429.557 367.898 429.734C368.368 429.908 368.773 430.088 369.115 430.274C369.457 430.457 369.719 430.68 369.901 430.944C370.088 431.204 370.182 431.539 370.182 431.949ZM376.854 431.949C376.854 432.428 376.733 432.831 376.491 433.159C376.254 433.483 375.912 433.727 375.466 433.891C375.024 434.055 374.495 434.137 373.88 434.137C373.356 434.137 372.902 434.096 372.52 434.014C372.137 433.932 371.802 433.815 371.515 433.665V432.619C371.82 432.77 372.185 432.906 372.608 433.029C373.032 433.152 373.465 433.214 373.907 433.214C374.554 433.214 375.024 433.109 375.315 432.899C375.607 432.69 375.753 432.405 375.753 432.045C375.753 431.84 375.694 431.66 375.575 431.505C375.461 431.345 375.268 431.193 374.994 431.047C374.721 430.896 374.342 430.732 373.859 430.555C373.381 430.372 372.966 430.192 372.615 430.015C372.269 429.832 372 429.611 371.809 429.352C371.622 429.092 371.528 428.755 371.528 428.34C371.528 427.706 371.784 427.221 372.294 426.884C372.809 426.542 373.483 426.371 374.317 426.371C374.769 426.371 375.19 426.417 375.582 426.508C375.979 426.594 376.348 426.713 376.689 426.863L376.307 427.772C375.997 427.64 375.666 427.529 375.315 427.438C374.965 427.346 374.607 427.301 374.242 427.301C373.718 427.301 373.315 427.387 373.032 427.561C372.754 427.734 372.615 427.971 372.615 428.271C372.615 428.504 372.679 428.695 372.807 428.846C372.939 428.996 373.148 429.137 373.436 429.27C373.723 429.402 374.101 429.557 374.57 429.734C375.04 429.908 375.445 430.088 375.787 430.274C376.129 430.457 376.391 430.68 376.573 430.944C376.76 431.204 376.854 431.539 376.854 431.949ZM379.813 426.508V434H378.679V426.508H379.813ZM379.26 423.705C379.447 423.705 379.606 423.767 379.738 423.89C379.875 424.008 379.943 424.195 379.943 424.45C379.943 424.701 379.875 424.888 379.738 425.011C379.606 425.134 379.447 425.195 379.26 425.195C379.064 425.195 378.9 425.134 378.768 425.011C378.64 424.888 378.576 424.701 378.576 424.45C378.576 424.195 378.64 424.008 378.768 423.89C378.9 423.767 379.064 423.705 379.26 423.705ZM385.556 427.396H383.689V434H382.555V427.396H381.229V426.85L382.555 426.474V425.975C382.555 425.346 382.648 424.835 382.835 424.443C383.022 424.047 383.293 423.755 383.648 423.568C384.004 423.382 384.437 423.288 384.947 423.288C385.234 423.288 385.496 423.313 385.733 423.363C385.975 423.413 386.187 423.47 386.369 423.534L386.075 424.43C385.92 424.38 385.745 424.334 385.549 424.293C385.357 424.247 385.161 424.225 384.961 424.225C384.528 424.225 384.207 424.366 383.997 424.648C383.792 424.926 383.689 425.364 383.689 425.961V426.508H385.556V427.396ZM388.064 426.508V434H386.93V426.508H388.064ZM387.511 423.705C387.698 423.705 387.857 423.767 387.989 423.89C388.126 424.008 388.194 424.195 388.194 424.45C388.194 424.701 388.126 424.888 387.989 425.011C387.857 425.134 387.698 425.195 387.511 425.195C387.315 425.195 387.151 425.134 387.019 425.011C386.891 424.888 386.827 424.701 386.827 424.45C386.827 424.195 386.891 424.008 387.019 423.89C387.151 423.767 387.315 423.705 387.511 423.705ZM393.465 434.137C392.79 434.137 392.196 433.998 391.681 433.72C391.166 433.442 390.765 433.018 390.478 432.448C390.19 431.879 390.047 431.161 390.047 430.295C390.047 429.388 390.197 428.647 390.498 428.073C390.803 427.494 391.223 427.066 391.756 426.788C392.289 426.51 392.895 426.371 393.574 426.371C393.948 426.371 394.308 426.41 394.654 426.487C395.005 426.56 395.292 426.654 395.516 426.768L395.174 427.718C394.946 427.627 394.682 427.545 394.381 427.472C394.085 427.399 393.807 427.362 393.547 427.362C393.027 427.362 392.594 427.474 392.248 427.697C391.906 427.921 391.649 428.249 391.476 428.682C391.307 429.115 391.223 429.648 391.223 430.281C391.223 430.887 391.305 431.405 391.469 431.833C391.637 432.261 391.886 432.59 392.214 432.817C392.547 433.041 392.961 433.152 393.458 433.152C393.854 433.152 394.212 433.111 394.531 433.029C394.85 432.943 395.14 432.842 395.399 432.729V433.74C395.149 433.868 394.868 433.966 394.559 434.034C394.253 434.103 393.889 434.137 393.465 434.137ZM399.979 426.385C400.873 426.385 401.536 426.585 401.969 426.986C402.402 427.387 402.618 428.028 402.618 428.907V434H401.791L401.572 432.893H401.518C401.308 433.166 401.089 433.396 400.861 433.583C400.633 433.765 400.369 433.904 400.068 434C399.772 434.091 399.408 434.137 398.975 434.137C398.519 434.137 398.113 434.057 397.758 433.897C397.407 433.738 397.129 433.496 396.924 433.173C396.723 432.849 396.623 432.439 396.623 431.942C396.623 431.195 396.919 430.621 397.512 430.22C398.104 429.819 399.007 429.6 400.219 429.563L401.511 429.509V429.051C401.511 428.404 401.372 427.95 401.094 427.69C400.816 427.431 400.424 427.301 399.918 427.301C399.526 427.301 399.152 427.358 398.797 427.472C398.441 427.586 398.104 427.72 397.785 427.875L397.437 427.014C397.774 426.84 398.161 426.692 398.599 426.569C399.036 426.446 399.496 426.385 399.979 426.385ZM401.497 430.309L400.355 430.356C399.421 430.393 398.763 430.546 398.38 430.814C397.997 431.083 397.806 431.464 397.806 431.956C397.806 432.384 397.936 432.701 398.195 432.906C398.455 433.111 398.799 433.214 399.228 433.214C399.893 433.214 400.438 433.029 400.861 432.66C401.285 432.291 401.497 431.737 401.497 430.999V430.309ZM407.376 433.207C407.563 433.207 407.754 433.191 407.95 433.159C408.146 433.127 408.306 433.089 408.429 433.043V433.925C408.297 433.984 408.112 434.034 407.875 434.075C407.643 434.116 407.415 434.137 407.191 434.137C406.795 434.137 406.435 434.068 406.111 433.932C405.788 433.79 405.528 433.553 405.332 433.221C405.141 432.888 405.045 432.428 405.045 431.84V427.396H403.979V426.843L405.052 426.398L405.503 424.771H406.187V426.508H408.381V427.396H406.187V431.806C406.187 432.275 406.294 432.626 406.508 432.858C406.727 433.091 407.016 433.207 407.376 433.207ZM411.081 426.508V434H409.946V426.508H411.081ZM410.527 423.705C410.714 423.705 410.874 423.767 411.006 423.89C411.143 424.008 411.211 424.195 411.211 424.45C411.211 424.701 411.143 424.888 411.006 425.011C410.874 425.134 410.714 425.195 410.527 425.195C410.331 425.195 410.167 425.134 410.035 425.011C409.908 424.888 409.844 424.701 409.844 424.45C409.844 424.195 409.908 424.008 410.035 423.89C410.167 423.767 410.331 423.705 410.527 423.705ZM419.947 430.24C419.947 430.855 419.868 431.405 419.708 431.888C419.549 432.371 419.318 432.779 419.018 433.111C418.717 433.444 418.352 433.699 417.924 433.877C417.5 434.05 417.019 434.137 416.481 434.137C415.98 434.137 415.52 434.05 415.101 433.877C414.686 433.699 414.326 433.444 414.021 433.111C413.72 432.779 413.485 432.371 413.316 431.888C413.152 431.405 413.07 430.855 413.07 430.24C413.07 429.42 413.209 428.723 413.487 428.148C413.765 427.57 414.162 427.13 414.677 426.829C415.196 426.524 415.814 426.371 416.529 426.371C417.213 426.371 417.81 426.524 418.32 426.829C418.835 427.134 419.234 427.576 419.517 428.155C419.804 428.729 419.947 429.424 419.947 430.24ZM414.246 430.24C414.246 430.842 414.326 431.364 414.485 431.806C414.645 432.248 414.891 432.59 415.224 432.831C415.556 433.073 415.985 433.193 416.509 433.193C417.028 433.193 417.454 433.073 417.787 432.831C418.124 432.59 418.373 432.248 418.532 431.806C418.692 431.364 418.771 430.842 418.771 430.24C418.771 429.643 418.692 429.128 418.532 428.695C418.373 428.258 418.127 427.921 417.794 427.684C417.461 427.447 417.031 427.328 416.502 427.328C415.723 427.328 415.151 427.586 414.786 428.101C414.426 428.616 414.246 429.329 414.246 430.24ZM425.457 426.371C426.346 426.371 427.018 426.59 427.474 427.027C427.929 427.46 428.157 428.158 428.157 429.119V434H427.036V429.194C427.036 428.57 426.893 428.103 426.605 427.793C426.323 427.483 425.888 427.328 425.3 427.328C424.47 427.328 423.887 427.563 423.55 428.032C423.213 428.502 423.044 429.183 423.044 430.076V434H421.909V426.508H422.825L422.996 427.588H423.058C423.217 427.324 423.42 427.103 423.666 426.925C423.912 426.743 424.188 426.606 424.493 426.515C424.799 426.419 425.12 426.371 425.457 426.371Z" fill="#A3B7EE"/>
</g>
<defs>
<filter id="filter0_d_17_17754" x="0" y="0" width="819" height="472" filterUnits="userSpaceOnUse" color-interpolation-filters="sRGB">
<feFlood flood-opacity="0" result="BackgroundImageFix"/>
<feColorMatrix in="SourceAlpha" type="matrix" values="0 0 0 0 0 0 0 0 0 0 0 0 0 0 0 0 0 0 127 0" result="hardAlpha"/>
<feOffset dy="4"/>
<feGaussianBlur stdDeviation="2"/>
<feComposite in2="hardAlpha" operator="out"/>
<feColorMatrix type="matrix" values="0 0 0 0 0 0 0 0 0 0 0 0 0 0 0 0 0 0 0.25 0"/>
<feBlend mode="normal" in2="BackgroundImageFix" result="effect1_dropShadow_17_17754"/>
<feBlend mode="normal" in="SourceGraphic" in2="effect1_dropShadow_17_17754" result="shape"/>
</filter>
<linearGradient id="paint0_linear_17_17754" x1="0" y1="0" x2="751.203" y2="546.235" gradientUnits="userSpaceOnUse">
<stop stop-color="#3C4453"/>
<stop offset="0.486061" stop-color="#1C202B"/>
<stop offset="1" stop-color="#252932"/>
</linearGradient>
</defs>
</svg>
