<svg width="100%" height="100%" viewBox="0 0 799 414" fill="none" xmlns="http://www.w3.org/2000/svg">
<rect width="798" height="414" fill="white"/>
<path d="M0 8.35742H2.2832L3.72559 12.6572C3.77116 12.7939 3.8099 12.9329 3.8418 13.0742C3.8737 13.2155 3.90104 13.3613 3.92383 13.5117C3.94661 13.6621 3.96484 13.8193 3.97852 13.9834H4.01953C4.04688 13.7373 4.08333 13.5072 4.12891 13.293C4.17904 13.0788 4.24056 12.8669 4.31348 12.6572L5.72852 8.35742H7.96387L4.73047 16.9775C4.53451 17.5062 4.2793 17.946 3.96484 18.2969C3.65039 18.6523 3.28809 18.9189 2.87793 19.0967C2.47233 19.2744 2.02572 19.3633 1.53809 19.3633C1.30111 19.3633 1.09603 19.3496 0.922852 19.3223C0.749674 19.2995 0.601562 19.2744 0.478516 19.2471V17.5928C0.574219 17.6156 0.694987 17.6361 0.84082 17.6543C0.986654 17.6725 1.13932 17.6816 1.29883 17.6816C1.59049 17.6816 1.84115 17.6201 2.05078 17.4971C2.26042 17.374 2.43587 17.2077 2.57715 16.998C2.71842 16.793 2.83008 16.5674 2.91211 16.3213L3.03516 15.9453L0 8.35742ZM8.3877 13.1016V11.3926H12.0586V13.1016H8.3877ZM16.707 8.2002C17.7324 8.2002 18.5186 8.4235 19.0654 8.87012C19.6123 9.31673 19.8857 9.99577 19.8857 10.9072V16H18.4297L18.0264 14.9609H17.9717C17.7529 15.2344 17.5296 15.4577 17.3018 15.6309C17.0739 15.804 16.8118 15.9316 16.5156 16.0137C16.2194 16.0957 15.8594 16.1367 15.4355 16.1367C14.9844 16.1367 14.5788 16.0501 14.2188 15.877C13.8633 15.7038 13.583 15.4395 13.3779 15.084C13.1729 14.724 13.0703 14.2682 13.0703 13.7168C13.0703 12.9056 13.3551 12.3086 13.9248 11.9258C14.4945 11.5384 15.349 11.3242 16.4883 11.2832L17.8145 11.2422V10.9072C17.8145 10.5062 17.7096 10.2122 17.5 10.0254C17.2904 9.83854 16.9987 9.74512 16.625 9.74512C16.2559 9.74512 15.8936 9.79753 15.5381 9.90234C15.1826 10.0072 14.8271 10.1393 14.4717 10.2988L13.7812 8.89062C14.1868 8.67643 14.6403 8.50781 15.1416 8.38477C15.6475 8.26172 16.1693 8.2002 16.707 8.2002ZM17.8145 12.459L17.0078 12.4863C16.3333 12.5046 15.8639 12.6253 15.5996 12.8486C15.3398 13.0719 15.21 13.3659 15.21 13.7305C15.21 14.0495 15.3034 14.2773 15.4902 14.4141C15.6771 14.5462 15.9209 14.6123 16.2217 14.6123C16.6683 14.6123 17.0443 14.4801 17.3496 14.2158C17.6595 13.9515 17.8145 13.5755 17.8145 13.0879V12.459ZM23.6045 12.0967L21.1436 8.35742H23.5088L24.9922 10.791L26.4893 8.35742H28.8545L26.3662 12.0967L28.9707 16H26.5986L24.9922 13.3818L23.3789 16H21.0137L23.6045 12.0967ZM32.2178 8.35742V16H30.1328V8.35742H32.2178ZM31.1787 5.36328C31.4886 5.36328 31.7552 5.4362 31.9785 5.58203C32.2018 5.72331 32.3135 5.98991 32.3135 6.38184C32.3135 6.76921 32.2018 7.03809 31.9785 7.18848C31.7552 7.33431 31.4886 7.40723 31.1787 7.40723C30.8643 7.40723 30.5954 7.33431 30.3721 7.18848C30.1533 7.03809 30.0439 6.76921 30.0439 6.38184C30.0439 5.98991 30.1533 5.72331 30.3721 5.58203C30.5954 5.4362 30.8643 5.36328 31.1787 5.36328ZM39.7441 13.7305C39.7441 14.25 39.6211 14.6898 39.375 15.0498C39.1335 15.4053 38.7712 15.6764 38.2881 15.8633C37.805 16.0456 37.2035 16.1367 36.4834 16.1367C35.9502 16.1367 35.4922 16.1025 35.1094 16.0342C34.7311 15.9658 34.3483 15.8519 33.9609 15.6924V13.9697C34.3757 14.1566 34.82 14.3115 35.2939 14.4346C35.7725 14.5531 36.1917 14.6123 36.5518 14.6123C36.9574 14.6123 37.2467 14.5531 37.4199 14.4346C37.5977 14.3115 37.6865 14.152 37.6865 13.9561C37.6865 13.8285 37.6501 13.7145 37.5771 13.6143C37.5088 13.5094 37.3584 13.3932 37.126 13.2656C36.8936 13.1335 36.529 12.9626 36.0322 12.7529C35.5537 12.5524 35.1595 12.3496 34.8496 12.1445C34.5443 11.9395 34.3164 11.6979 34.166 11.4199C34.0202 11.1374 33.9473 10.7796 33.9473 10.3467C33.9473 9.6403 34.2207 9.10938 34.7676 8.75391C35.319 8.39388 36.055 8.21387 36.9756 8.21387C37.4495 8.21387 37.9007 8.26172 38.3291 8.35742C38.762 8.45312 39.2064 8.60579 39.6621 8.81543L39.0332 10.3193C38.6549 10.1553 38.2972 10.0208 37.96 9.91602C37.6273 9.8112 37.2878 9.75879 36.9414 9.75879C36.6361 9.75879 36.4059 9.7998 36.251 9.88184C36.096 9.96387 36.0186 10.0892 36.0186 10.2578C36.0186 10.3809 36.0573 10.4902 36.1348 10.5859C36.2168 10.6816 36.3717 10.7887 36.5996 10.9072C36.832 11.0212 37.1715 11.1693 37.6182 11.3516C38.0511 11.5293 38.4271 11.7161 38.7461 11.9121C39.0651 12.1035 39.3112 12.3428 39.4844 12.6299C39.6576 12.9124 39.7441 13.2793 39.7441 13.7305ZM47.0928 16H45.0078V5.36328H47.0928V16ZM52.418 8.2002C53.4434 8.2002 54.2295 8.4235 54.7764 8.87012C55.3232 9.31673 55.5967 9.99577 55.5967 10.9072V16H54.1406L53.7373 14.9609H53.6826C53.4639 15.2344 53.2406 15.4577 53.0127 15.6309C52.7848 15.804 52.5228 15.9316 52.2266 16.0137C51.9303 16.0957 51.5703 16.1367 51.1465 16.1367C50.6953 16.1367 50.2897 16.0501 49.9297 15.877C49.5742 15.7038 49.2939 15.4395 49.0889 15.084C48.8838 14.724 48.7812 14.2682 48.7812 13.7168C48.7812 12.9056 49.0661 12.3086 49.6357 11.9258C50.2054 11.5384 51.0599 11.3242 52.1992 11.2832L53.5254 11.2422V10.9072C53.5254 10.5062 53.4206 10.2122 53.2109 10.0254C53.0013 9.83854 52.7096 9.74512 52.3359 9.74512C51.9668 9.74512 51.6045 9.79753 51.249 9.90234C50.8936 10.0072 50.5381 10.1393 50.1826 10.2988L49.4922 8.89062C49.8978 8.67643 50.3512 8.50781 50.8525 8.38477C51.3584 8.26172 51.8802 8.2002 52.418 8.2002ZM53.5254 12.459L52.7188 12.4863C52.0443 12.5046 51.5749 12.6253 51.3105 12.8486C51.0508 13.0719 50.9209 13.3659 50.9209 13.7305C50.9209 14.0495 51.0143 14.2773 51.2012 14.4141C51.388 14.5462 51.6318 14.6123 51.9326 14.6123C52.3792 14.6123 52.7552 14.4801 53.0605 14.2158C53.3704 13.9515 53.5254 13.5755 53.5254 13.0879V12.459ZM59.835 5.36328V7.83789C59.835 8.125 59.8258 8.40983 59.8076 8.69238C59.7939 8.97493 59.7757 9.19368 59.7529 9.34863H59.835C60.0355 9.03418 60.3089 8.76758 60.6553 8.54883C61.0016 8.32552 61.4505 8.21387 62.002 8.21387C62.8587 8.21387 63.5537 8.54883 64.0869 9.21875C64.6201 9.88867 64.8867 10.8708 64.8867 12.165C64.8867 13.0355 64.7637 13.7669 64.5176 14.3594C64.2715 14.9473 63.9274 15.3916 63.4854 15.6924C63.0433 15.9886 62.5306 16.1367 61.9473 16.1367C61.3867 16.1367 60.9447 16.0365 60.6211 15.8359C60.2975 15.6354 60.0355 15.4098 59.835 15.1592H59.6914L59.3428 16H57.75V5.36328H59.835ZM61.332 9.88184C60.9674 9.88184 60.6781 9.95703 60.4639 10.1074C60.2497 10.2578 60.0924 10.4834 59.9922 10.7842C59.8965 11.085 59.8441 11.4655 59.835 11.9258V12.1514C59.835 12.8942 59.9443 13.4639 60.1631 13.8604C60.3818 14.2523 60.7806 14.4482 61.3594 14.4482C61.7878 14.4482 62.1273 14.25 62.3779 13.8535C62.6331 13.457 62.7607 12.8851 62.7607 12.1377C62.7607 11.3903 62.6331 10.8275 62.3779 10.4492C62.1227 10.071 61.7741 9.88184 61.332 9.88184ZM69.7607 8.21387C70.4671 8.21387 71.0755 8.35059 71.5859 8.62402C72.0964 8.8929 72.4906 9.28483 72.7686 9.7998C73.0465 10.3148 73.1855 10.9437 73.1855 11.6865V12.6982H68.2568C68.2796 13.2861 68.4551 13.7487 68.7832 14.0859C69.1159 14.4186 69.5762 14.585 70.1641 14.585C70.6517 14.585 71.0983 14.5348 71.5039 14.4346C71.9095 14.3343 72.3265 14.1839 72.7549 13.9834V15.5967C72.3766 15.7835 71.9801 15.9202 71.5654 16.0068C71.1553 16.0934 70.6562 16.1367 70.0684 16.1367C69.3027 16.1367 68.6237 15.9954 68.0312 15.7129C67.4434 15.4303 66.9808 14.9997 66.6436 14.4209C66.3109 13.8421 66.1445 13.113 66.1445 12.2334C66.1445 11.3402 66.2949 10.5973 66.5957 10.0049C66.901 9.40788 67.3249 8.96126 67.8672 8.66504C68.4095 8.36426 69.0407 8.21387 69.7607 8.21387ZM69.7744 9.69727C69.3688 9.69727 69.0316 9.82715 68.7627 10.0869C68.4984 10.3467 68.3457 10.7546 68.3047 11.3105H71.2305C71.2259 11.0007 71.1689 10.7249 71.0596 10.4834C70.9548 10.2419 70.7952 10.0505 70.5811 9.90918C70.3714 9.7679 70.1025 9.69727 69.7744 9.69727ZM76.9658 16H74.8809V5.36328H76.9658V16Z" fill="#000716"/>
<path d="M37.3953 49.06L34.9473 42.916H36.2193L37.9713 47.896L39.6633 42.916H40.8873L38.1153 50.068C37.9073 50.62 37.6553 51.016 37.3593 51.256C37.0713 51.496 36.7033 51.616 36.2553 51.616C35.9193 51.616 35.6073 51.56 35.3193 51.448V50.596C35.5353 50.652 35.7633 50.68 36.0033 50.68C36.2993 50.68 36.5313 50.604 36.6993 50.452C36.8753 50.308 37.0313 50.048 37.1673 49.672L37.3953 49.06ZM45.1448 41.488C44.3768 41.488 43.7968 41.752 43.4048 42.28C43.0208 42.8 42.8128 43.596 42.7808 44.668C43.1008 44.452 43.4448 44.284 43.8128 44.164C44.1808 44.044 44.5408 43.984 44.8928 43.984C45.3808 43.984 45.8128 44.084 46.1888 44.284C46.5728 44.476 46.8728 44.76 47.0888 45.136C47.3128 45.504 47.4248 45.936 47.4248 46.432C47.4248 47.264 47.1688 47.932 46.6568 48.436C46.1448 48.932 45.4608 49.18 44.6048 49.18C43.6048 49.18 42.8528 48.84 42.3488 48.16C41.8448 47.48 41.5928 46.464 41.5928 45.112C41.5928 43.656 41.8888 42.524 42.4808 41.716C43.0808 40.908 43.9168 40.504 44.9888 40.504C45.3248 40.504 45.6608 40.54 45.9968 40.612C46.3328 40.684 46.6248 40.78 46.8728 40.9V41.812C46.6088 41.716 46.3208 41.64 46.0088 41.584C45.6968 41.52 45.4088 41.488 45.1448 41.488ZM44.5808 44.944C44.2928 44.944 43.9928 44.992 43.6808 45.088C43.3688 45.176 43.0688 45.3 42.7808 45.46C42.8288 47.284 43.4488 48.196 44.6408 48.196C45.1448 48.196 45.5328 48.052 45.8048 47.764C46.0848 47.476 46.2248 47.06 46.2248 46.516C46.2248 46.02 46.0808 45.636 45.7928 45.364C45.5128 45.084 45.1088 44.944 44.5808 44.944Z" fill="#5F6B7A"/>
<rect width="746" height="1" transform="translate(52 44.5)" fill="#E9EBED"/>
<path d="M37.3953 102.86L34.9473 96.716H36.2193L37.9713 101.696L39.6633 96.716H40.8873L38.1153 103.868C37.9073 104.42 37.6553 104.816 37.3593 105.056C37.0713 105.296 36.7033 105.416 36.2553 105.416C35.9193 105.416 35.6073 105.36 35.3193 105.248V104.396C35.5353 104.452 35.7633 104.48 36.0033 104.48C36.2993 104.48 36.5313 104.404 36.6993 104.252C36.8753 104.108 37.0313 103.848 37.1673 103.472L37.3953 102.86ZM41.7848 101.54C42.6728 101.828 43.4328 101.972 44.0648 101.972C44.6728 101.972 45.1368 101.836 45.4568 101.564C45.7848 101.284 45.9488 100.884 45.9488 100.364C45.9488 99.796 45.7968 99.384 45.4928 99.128C45.1888 98.872 44.6928 98.744 44.0048 98.744C43.5088 98.744 42.8888 98.784 42.1448 98.864V98.072L42.3728 94.484H46.7528V95.468H43.3808L43.2248 97.904C43.6648 97.824 44.0608 97.784 44.4128 97.784C45.2768 97.784 45.9528 98.012 46.4408 98.468C46.9288 98.924 47.1728 99.552 47.1728 100.352C47.1728 101.136 46.8888 101.772 46.3208 102.26C45.7528 102.74 45.0048 102.98 44.0768 102.98C43.2608 102.98 42.4968 102.82 41.7848 102.5V101.54Z" fill="#5F6B7A"/>
<rect width="746" height="1" transform="translate(52 98.3)" fill="#E9EBED"/>
<path d="M37.3953 156.66L34.9473 150.516H36.2193L37.9713 155.496L39.6633 150.516H40.8873L38.1153 157.668C37.9073 158.22 37.6553 158.616 37.3593 158.856C37.0713 159.096 36.7033 159.216 36.2553 159.216C35.9193 159.216 35.6073 159.16 35.3193 159.048V158.196C35.5353 158.252 35.7633 158.28 36.0033 158.28C36.2993 158.28 36.5313 158.204 36.6993 158.052C36.8753 157.908 37.0313 157.648 37.1673 157.272L37.3953 156.66ZM45.3128 156.6V154.812H41.3288V153.888L45.2768 148.284H46.4288V153.84H47.5928V154.812H46.4288V156.6H45.3128ZM45.3128 153.84V149.856L42.5288 153.84H45.3128Z" fill="#5F6B7A"/>
<rect width="746" height="1" transform="translate(52 152.1)" fill="#E9EBED"/>
<path d="M37.3953 210.46L34.9473 204.316H36.2193L37.9713 209.296L39.6633 204.316H40.8873L38.1153 211.468C37.9073 212.02 37.6553 212.416 37.3593 212.656C37.0713 212.896 36.7033 213.016 36.2553 213.016C35.9193 213.016 35.6073 212.96 35.3193 212.848V211.996C35.5353 212.052 35.7633 212.08 36.0033 212.08C36.2993 212.08 36.5313 212.004 36.6993 211.852C36.8753 211.708 37.0313 211.448 37.1673 211.072L37.3953 210.46ZM44.2568 205.648C44.2968 205.64 44.3368 205.636 44.3768 205.636C44.4168 205.636 44.4568 205.636 44.4967 205.636C45.2888 205.636 45.9168 205.852 46.3808 206.284C46.8448 206.708 47.0768 207.28 47.0768 208C47.0768 208.784 46.7928 209.412 46.2248 209.884C45.6648 210.348 44.9088 210.58 43.9568 210.58C43.2048 210.58 42.4608 210.42 41.7248 210.1V209.14C42.5968 209.428 43.3408 209.572 43.9568 209.572C44.5648 209.572 45.0328 209.436 45.3608 209.164C45.6888 208.892 45.8528 208.504 45.8528 208C45.8528 207.032 45.2408 206.548 44.0168 206.548C43.6328 206.548 43.2528 206.568 42.8768 206.608V205.816L45.3968 203.068H41.8448V202.084H46.7288V203.032L44.2568 205.648Z" fill="#5F6B7A"/>
<rect width="746" height="1" transform="translate(52 205.9)" fill="#E9EBED"/>
<path d="M37.3953 264.26L34.9473 258.116H36.2193L37.9713 263.096L39.6633 258.116H40.8873L38.1153 265.268C37.9073 265.82 37.6553 266.216 37.3593 266.456C37.0713 266.696 36.7033 266.816 36.2553 266.816C35.9193 266.816 35.6073 266.76 35.3193 266.648V265.796C35.5353 265.852 35.7633 265.88 36.0033 265.88C36.2993 265.88 36.5313 265.804 36.6993 265.652C36.8753 265.508 37.0313 265.248 37.1673 264.872L37.3953 264.26ZM41.7728 264.2V263.264C42.9248 262.096 43.7648 261.204 44.2928 260.588C44.8288 259.964 45.1968 259.464 45.3968 259.088C45.5968 258.712 45.6968 258.356 45.6968 258.02C45.6968 257.62 45.5728 257.308 45.3248 257.084C45.0848 256.852 44.7568 256.736 44.3408 256.736C43.6288 256.736 42.8488 257.036 42.0008 257.636V256.616C42.3928 256.304 42.7888 256.076 43.1888 255.932C43.5968 255.78 44.0408 255.704 44.5208 255.704C45.2488 255.704 45.8328 255.908 46.2728 256.316C46.7208 256.724 46.9448 257.264 46.9448 257.936C46.9448 258.384 46.8248 258.84 46.5848 259.304C46.3448 259.76 45.9528 260.292 45.4088 260.9C44.8728 261.508 44.1208 262.276 43.1528 263.204H47.3288V264.2H41.7728Z" fill="#5F6B7A"/>
<rect width="746" height="1" transform="translate(52 259.7)" fill="#E9EBED"/>
<path d="M37.3953 318.06L34.9473 311.916H36.2193L37.9713 316.896L39.6633 311.916H40.8873L38.1153 319.068C37.9073 319.62 37.6553 320.016 37.3593 320.256C37.0713 320.496 36.7033 320.616 36.2553 320.616C35.9193 320.616 35.6073 320.56 35.3193 320.448V319.596C35.5353 319.652 35.7633 319.68 36.0033 319.68C36.2993 319.68 36.5313 319.604 36.6993 319.452C36.8753 319.308 37.0313 319.048 37.1673 318.672L37.3953 318.06ZM44.5208 318V310.872L42.2048 311.772V310.812L44.6048 309.684H45.7208V318H44.5208Z" fill="#5F6B7A"/>
<rect width="746" height="1" transform="translate(52 313.5)" fill="#E9EBED"/>
<rect width="62.6449" height="1" transform="translate(46.261 313.543)" fill="#D1D5DB"/>
<rect width="1" height="8" transform="translate(69.761 314.543)" fill="#D1D5DB"/>
<path d="M68.2247 334.543L66.7007 332.215L65.2007 334.543H63.9407L66.0887 331.423L64.0607 328.459H65.3687L66.7607 330.583L68.1407 328.459H69.3887L67.3727 331.351L69.5447 334.543H68.2247ZM73.186 334.543V327.415L70.87 328.315V327.355L73.27 326.227H74.386V334.543H73.186Z" fill="#5F6B7A"/>
<rect width="62.6449" height="1" transform="translate(108.906 313.543)" fill="#D1D5DB"/>
<rect width="1" height="8" transform="translate(132.406 314.543)" fill="#D1D5DB"/>
<path d="M130.87 334.543L129.346 332.215L127.846 334.543H126.586L128.734 331.423L126.706 328.459H128.014L129.406 330.583L130.786 328.459H132.034L130.018 331.351L132.19 334.543H130.87ZM133.083 334.543V333.607C134.235 332.439 135.075 331.547 135.603 330.931C136.139 330.307 136.507 329.807 136.707 329.431C136.907 329.055 137.007 328.699 137.007 328.363C137.007 327.963 136.883 327.651 136.635 327.427C136.395 327.195 136.067 327.079 135.651 327.079C134.939 327.079 134.159 327.379 133.311 327.979V326.959C133.703 326.647 134.099 326.419 134.499 326.275C134.907 326.123 135.351 326.047 135.831 326.047C136.559 326.047 137.143 326.251 137.583 326.659C138.031 327.067 138.255 327.607 138.255 328.279C138.255 328.727 138.135 329.183 137.895 329.647C137.655 330.103 137.263 330.635 136.719 331.243C136.183 331.851 135.431 332.619 134.463 333.547H138.639V334.543H133.083Z" fill="#5F6B7A"/>
<rect width="62.6449" height="1" transform="translate(171.551 313.543)" fill="#D1D5DB"/>
<rect width="1" height="8" transform="translate(195.051 314.543)" fill="#D1D5DB"/>
<path d="M193.514 334.543L191.99 332.215L190.49 334.543H189.23L191.378 331.423L189.35 328.459H190.658L192.05 330.583L193.43 328.459H194.678L192.662 331.351L194.834 334.543H193.514ZM198.212 329.791C198.252 329.783 198.292 329.779 198.332 329.779C198.372 329.779 198.412 329.779 198.452 329.779C199.244 329.779 199.872 329.995 200.336 330.427C200.8 330.851 201.032 331.423 201.032 332.143C201.032 332.927 200.748 333.555 200.18 334.027C199.62 334.491 198.864 334.723 197.912 334.723C197.16 334.723 196.416 334.563 195.68 334.243V333.283C196.552 333.571 197.296 333.715 197.912 333.715C198.52 333.715 198.988 333.579 199.316 333.307C199.644 333.035 199.808 332.647 199.808 332.143C199.808 331.175 199.196 330.691 197.972 330.691C197.588 330.691 197.208 330.711 196.832 330.751V329.959L199.352 327.211H195.8V326.227H200.684V327.175L198.212 329.791Z" fill="#5F6B7A"/>
<rect width="62.6449" height="1" transform="translate(234.196 313.543)" fill="#D1D5DB"/>
<rect width="1" height="8" transform="translate(257.696 314.543)" fill="#D1D5DB"/>
<path d="M256.16 334.543L254.636 332.215L253.136 334.543H251.876L254.024 331.423L251.996 328.459H253.304L254.696 330.583L256.076 328.459H257.324L255.308 331.351L257.48 334.543H256.16ZM261.913 334.543V332.755H257.929V331.831L261.877 326.227H263.029V331.783H264.193V332.755H263.029V334.543H261.913ZM261.913 331.783V327.799L259.129 331.783H261.913Z" fill="#5F6B7A"/>
<rect width="62.6449" height="1" transform="translate(296.841 313.543)" fill="#D1D5DB"/>
<rect width="1" height="8" transform="translate(320.341 314.543)" fill="#D1D5DB"/>
<path d="M318.805 334.543L317.281 332.215L315.781 334.543H314.521L316.669 331.423L314.641 328.459H315.949L317.341 330.583L318.721 328.459H319.969L317.953 331.351L320.125 334.543H318.805ZM321.03 333.283C321.918 333.571 322.678 333.715 323.31 333.715C323.918 333.715 324.382 333.579 324.702 333.307C325.03 333.027 325.194 332.627 325.194 332.107C325.194 331.539 325.042 331.127 324.738 330.871C324.434 330.615 323.938 330.487 323.25 330.487C322.754 330.487 322.134 330.527 321.39 330.607V329.815L321.618 326.227H325.998V327.211H322.626L322.47 329.647C322.91 329.567 323.306 329.527 323.658 329.527C324.522 329.527 325.198 329.755 325.686 330.211C326.174 330.667 326.418 331.295 326.418 332.095C326.418 332.879 326.134 333.515 325.566 334.003C324.998 334.483 324.25 334.723 323.322 334.723C322.506 334.723 321.742 334.563 321.03 334.243V333.283Z" fill="#5F6B7A"/>
<rect width="62.6449" height="1" transform="translate(359.486 313.543)" fill="#D1D5DB"/>
<rect width="1" height="8" transform="translate(382.986 314.543)" fill="#D1D5DB"/>
<path d="M381.449 334.543L379.925 332.215L378.425 334.543H377.165L379.313 331.423L377.285 328.459H378.593L379.985 330.583L381.365 328.459H382.613L380.597 331.351L382.769 334.543H381.449ZM387.035 327.031C386.267 327.031 385.687 327.295 385.295 327.823C384.911 328.343 384.703 329.139 384.671 330.211C384.991 329.995 385.335 329.827 385.703 329.707C386.071 329.587 386.431 329.527 386.783 329.527C387.271 329.527 387.703 329.627 388.079 329.827C388.463 330.019 388.763 330.303 388.979 330.679C389.203 331.047 389.315 331.479 389.315 331.975C389.315 332.807 389.059 333.475 388.547 333.979C388.035 334.475 387.351 334.723 386.495 334.723C385.495 334.723 384.743 334.383 384.239 333.703C383.735 333.023 383.483 332.007 383.483 330.655C383.483 329.199 383.779 328.067 384.371 327.259C384.971 326.451 385.807 326.047 386.879 326.047C387.215 326.047 387.551 326.083 387.887 326.155C388.223 326.227 388.515 326.323 388.763 326.443V327.355C388.499 327.259 388.211 327.183 387.899 327.127C387.587 327.063 387.299 327.031 387.035 327.031ZM386.471 330.487C386.183 330.487 385.883 330.535 385.571 330.631C385.259 330.719 384.959 330.843 384.671 331.003C384.719 332.827 385.339 333.739 386.531 333.739C387.035 333.739 387.423 333.595 387.695 333.307C387.975 333.019 388.115 332.603 388.115 332.059C388.115 331.563 387.971 331.179 387.683 330.907C387.403 330.627 386.999 330.487 386.471 330.487Z" fill="#5F6B7A"/>
<rect width="62.6449" height="1" transform="translate(422.131 313.543)" fill="#D1D5DB"/>
<rect width="1" height="8" transform="translate(445.631 314.543)" fill="#D1D5DB"/>
<path d="M444.094 334.543L442.57 332.215L441.07 334.543H439.81L441.958 331.423L439.93 328.459H441.238L442.63 330.583L444.01 328.459H445.258L443.242 331.351L445.414 334.543H444.094ZM447.232 334.543L450.556 327.211H446.128V326.227H451.768V327.175L448.516 334.543H447.232Z" fill="#5F6B7A"/>
<rect width="62.6449" height="1" transform="translate(484.775 313.543)" fill="#D1D5DB"/>
<rect width="1" height="8" transform="translate(508.275 314.543)" fill="#D1D5DB"/>
<path d="M506.739 334.543L505.215 332.215L503.715 334.543H502.455L504.603 331.423L502.575 328.459H503.883L505.275 330.583L506.655 328.459H507.903L505.887 331.351L508.059 334.543H506.739ZM514.28 328.255C514.28 328.695 514.156 329.095 513.908 329.455C513.668 329.815 513.332 330.103 512.9 330.319C513.5 330.591 513.932 330.887 514.196 331.207C514.46 331.527 514.592 331.919 514.592 332.383C514.592 333.103 514.324 333.675 513.788 334.099C513.26 334.515 512.54 334.723 511.628 334.723C510.748 334.723 510.044 334.523 509.516 334.123C508.996 333.723 508.736 333.179 508.736 332.491C508.736 332.003 508.872 331.563 509.144 331.171C509.424 330.779 509.828 330.463 510.356 330.223C509.916 329.999 509.588 329.735 509.372 329.431C509.164 329.119 509.06 328.751 509.06 328.327C509.06 327.639 509.296 327.087 509.768 326.671C510.248 326.255 510.88 326.047 511.664 326.047C512.44 326.047 513.068 326.251 513.548 326.659C514.036 327.067 514.28 327.599 514.28 328.255ZM511.1 330.559C510.292 331.015 509.888 331.591 509.888 332.287C509.888 332.759 510.04 333.127 510.344 333.391C510.656 333.647 511.096 333.775 511.664 333.775C512.224 333.775 512.66 333.655 512.972 333.415C513.284 333.167 513.44 332.819 513.44 332.371C513.44 332.043 513.324 331.775 513.092 331.567C512.868 331.351 512.448 331.115 511.832 330.859L511.1 330.559ZM510.188 328.267C510.188 328.595 510.296 328.879 510.512 329.119C510.728 329.351 511.068 329.563 511.532 329.755L512.156 330.007C512.82 329.567 513.152 329.023 513.152 328.375C513.152 327.919 513.02 327.567 512.756 327.319C512.492 327.071 512.124 326.947 511.652 326.947C511.188 326.947 510.828 327.063 510.572 327.295C510.316 327.527 510.188 327.851 510.188 328.267Z" fill="#5F6B7A"/>
<rect width="62.6449" height="1" transform="translate(547.42 313.543)" fill="#D1D5DB"/>
<rect width="1" height="8" transform="translate(570.92 314.543)" fill="#D1D5DB"/>
<path d="M569.384 334.543L567.86 332.215L566.36 334.543H565.1L567.248 331.423L565.22 328.459H566.528L567.92 330.583L569.3 328.459H570.548L568.532 331.351L570.704 334.543H569.384ZM571.729 333.295C572.385 333.591 572.989 333.739 573.541 333.739C574.309 333.739 574.889 333.503 575.281 333.031C575.681 332.559 575.909 331.827 575.965 330.835C575.677 331.027 575.357 331.179 575.005 331.291C574.653 331.395 574.293 331.447 573.925 331.447C573.149 331.447 572.533 331.215 572.077 330.751C571.629 330.287 571.405 329.651 571.405 328.843C571.405 328.307 571.517 327.831 571.741 327.415C571.973 326.991 572.301 326.659 572.725 326.419C573.149 326.171 573.637 326.047 574.189 326.047C575.157 326.047 575.893 326.387 576.397 327.067C576.909 327.747 577.165 328.739 577.165 330.043C577.165 331.547 576.865 332.703 576.265 333.511C575.665 334.319 574.813 334.723 573.709 334.723C572.917 334.723 572.257 334.551 571.729 334.207V333.295ZM574.213 330.487C574.517 330.487 574.821 330.447 575.125 330.367C575.437 330.287 575.721 330.175 575.977 330.031V329.863C575.953 327.975 575.349 327.031 574.165 327.031C573.693 327.031 573.313 327.191 573.025 327.511C572.745 327.823 572.605 328.243 572.605 328.771C572.605 329.331 572.741 329.759 573.013 330.055C573.285 330.343 573.685 330.487 574.213 330.487Z" fill="#5F6B7A"/>
<rect width="62.6449" height="1" transform="translate(610.065 313.543)" fill="#D1D5DB"/>
<rect width="1" height="8" transform="translate(633.565 314.543)" fill="#D1D5DB"/>
<path d="M628.514 334.543L626.99 332.215L625.49 334.543H624.23L626.378 331.423L624.35 328.459H625.658L627.05 330.583L628.43 328.459H629.678L627.662 331.351L629.834 334.543H628.514ZM633.475 334.543V327.415L631.159 328.315V327.355L633.559 326.227H634.675V334.543H633.475ZM640.47 333.715C641.102 333.715 641.566 333.451 641.862 332.923C642.158 332.387 642.306 331.539 642.306 330.379C642.306 329.235 642.158 328.395 641.862 327.859C641.566 327.323 641.102 327.055 640.47 327.055C639.838 327.055 639.374 327.323 639.078 327.859C638.782 328.395 638.634 329.235 638.634 330.379C638.634 331.531 638.782 332.375 639.078 332.911C639.374 333.447 639.838 333.715 640.47 333.715ZM640.47 334.723C639.486 334.723 638.73 334.351 638.202 333.607C637.674 332.855 637.41 331.779 637.41 330.379C637.41 328.987 637.67 327.919 638.19 327.175C638.718 326.423 639.478 326.047 640.47 326.047C641.454 326.047 642.21 326.419 642.738 327.163C643.266 327.907 643.53 328.979 643.53 330.379C643.53 331.779 643.266 332.855 642.738 333.607C642.218 334.351 641.462 334.723 640.47 334.723Z" fill="#5F6B7A"/>
<rect width="62.6449" height="1" transform="translate(672.71 313.543)" fill="#D1D5DB"/>
<rect width="1" height="8" transform="translate(696.21 314.543)" fill="#D1D5DB"/>
<path d="M691.158 334.543L689.634 332.215L688.134 334.543H686.874L689.022 331.423L686.994 328.459H688.302L689.694 330.583L691.074 328.459H692.322L690.306 331.351L692.478 334.543H691.158ZM696.12 334.543V327.415L693.804 328.315V327.355L696.204 326.227H697.32V334.543H696.12ZM703.151 334.543V327.415L700.835 328.315V327.355L703.235 326.227H704.351V334.543H703.151Z" fill="#5F6B7A"/>
<rect width="62.6449" height="1" transform="translate(735.355 313.543)" fill="#D1D5DB"/>
<rect width="1" height="8" transform="translate(758.855 314.543)" fill="#D1D5DB"/>
<path d="M753.803 334.543L752.279 332.215L750.779 334.543H749.519L751.667 331.423L749.639 328.459H750.947L752.339 330.583L753.719 328.459H754.967L752.951 331.351L755.123 334.543H753.803ZM758.764 334.543V327.415L756.448 328.315V327.355L758.848 326.227H759.964V334.543H758.764ZM763.048 334.543V333.607C764.2 332.439 765.04 331.547 765.568 330.931C766.104 330.307 766.472 329.807 766.672 329.431C766.872 329.055 766.972 328.699 766.972 328.363C766.972 327.963 766.848 327.651 766.6 327.427C766.36 327.195 766.032 327.079 765.616 327.079C764.904 327.079 764.124 327.379 763.276 327.979V326.959C763.668 326.647 764.064 326.419 764.464 326.275C764.872 326.123 765.316 326.047 765.796 326.047C766.524 326.047 767.108 326.251 767.548 326.659C767.996 327.067 768.22 327.607 768.22 328.279C768.22 328.727 768.1 329.183 767.86 329.647C767.62 330.103 767.228 330.635 766.684 331.243C766.148 331.851 765.396 332.619 764.428 333.547H768.604V334.543H763.048Z" fill="#5F6B7A"/>
<path d="M67.3867 239.311L85.312 234.774L102.524 239.311L118.812 256.957H136.989L161.883 275.395L164.989 242.192H206.381L218.807 275.395L236.019 196.169C242.008 188.367 254.272 172.848 255.413 173.194C256.555 173.539 267.699 161.862 273.129 155.98L283.876 208.485L297.057 224.547L312.842 275.395L349.448 300.027L374.342 224.547L395.025 186.374L413.227 133.682L433.957 95.5379L467.872 46L483.255 80.4288L499.435 186.374L522.908 238.447L525.3 257.75L554.224 310.759L586.759 301.684L617.614 210.574L653.758 240.536L679.827 314L705.687 263.511C707.828 250.403 712.639 224.014 714.754 223.322C716.87 222.631 744.518 214.535 758.077 210.574L776.255 263.511L798 186.374" stroke="#7492E7" stroke-width="2"/>
<path d="M67.3867 188L798 188" stroke="#5F6B7A" stroke-width="2" stroke-linecap="round" stroke-dasharray="4 4"/>
<path d="M368.338 354H365.918L363.594 350.22L361.27 354H359L362.315 348.846L359.212 344.006H361.55L363.703 347.602L365.815 344.006H368.099L364.961 348.962L368.338 354ZM368.755 351.102V349.393H372.426V351.102H368.755ZM377.074 346.2C378.1 346.2 378.886 346.424 379.433 346.87C379.979 347.317 380.253 347.996 380.253 348.907V354H378.797L378.394 352.961H378.339C378.12 353.234 377.897 353.458 377.669 353.631C377.441 353.804 377.179 353.932 376.883 354.014C376.587 354.096 376.227 354.137 375.803 354.137C375.352 354.137 374.946 354.05 374.586 353.877C374.23 353.704 373.95 353.439 373.745 353.084C373.54 352.724 373.438 352.268 373.438 351.717C373.438 350.906 373.722 350.309 374.292 349.926C374.862 349.538 375.716 349.324 376.855 349.283L378.182 349.242V348.907C378.182 348.506 378.077 348.212 377.867 348.025C377.658 347.839 377.366 347.745 376.992 347.745C376.623 347.745 376.261 347.798 375.905 347.902C375.55 348.007 375.194 348.139 374.839 348.299L374.148 346.891C374.554 346.676 375.007 346.508 375.509 346.385C376.015 346.262 376.536 346.2 377.074 346.2ZM378.182 350.459L377.375 350.486C376.701 350.505 376.231 350.625 375.967 350.849C375.707 351.072 375.577 351.366 375.577 351.73C375.577 352.049 375.671 352.277 375.857 352.414C376.044 352.546 376.288 352.612 376.589 352.612C377.035 352.612 377.411 352.48 377.717 352.216C378.027 351.951 378.182 351.576 378.182 351.088V350.459ZM383.972 350.097L381.511 346.357H383.876L385.359 348.791L386.856 346.357H389.222L386.733 350.097L389.338 354H386.966L385.359 351.382L383.746 354H381.381L383.972 350.097ZM392.585 346.357V354H390.5V346.357H392.585ZM391.546 343.363C391.856 343.363 392.122 343.436 392.346 343.582C392.569 343.723 392.681 343.99 392.681 344.382C392.681 344.769 392.569 345.038 392.346 345.188C392.122 345.334 391.856 345.407 391.546 345.407C391.231 345.407 390.963 345.334 390.739 345.188C390.521 345.038 390.411 344.769 390.411 344.382C390.411 343.99 390.521 343.723 390.739 343.582C390.963 343.436 391.231 343.363 391.546 343.363ZM400.111 351.73C400.111 352.25 399.988 352.69 399.742 353.05C399.501 353.405 399.138 353.676 398.655 353.863C398.172 354.046 397.571 354.137 396.851 354.137C396.317 354.137 395.859 354.103 395.477 354.034C395.098 353.966 394.715 353.852 394.328 353.692V351.97C394.743 352.157 395.187 352.312 395.661 352.435C396.14 352.553 396.559 352.612 396.919 352.612C397.325 352.612 397.614 352.553 397.787 352.435C397.965 352.312 398.054 352.152 398.054 351.956C398.054 351.828 398.017 351.715 397.944 351.614C397.876 351.509 397.726 351.393 397.493 351.266C397.261 351.133 396.896 350.963 396.399 350.753C395.921 350.552 395.527 350.35 395.217 350.145C394.911 349.939 394.684 349.698 394.533 349.42C394.387 349.137 394.314 348.78 394.314 348.347C394.314 347.64 394.588 347.109 395.135 346.754C395.686 346.394 396.422 346.214 397.343 346.214C397.817 346.214 398.268 346.262 398.696 346.357C399.129 346.453 399.574 346.606 400.029 346.815L399.4 348.319C399.022 348.155 398.664 348.021 398.327 347.916C397.994 347.811 397.655 347.759 397.309 347.759C397.003 347.759 396.773 347.8 396.618 347.882C396.463 347.964 396.386 348.089 396.386 348.258C396.386 348.381 396.424 348.49 396.502 348.586C396.584 348.682 396.739 348.789 396.967 348.907C397.199 349.021 397.539 349.169 397.985 349.352C398.418 349.529 398.794 349.716 399.113 349.912C399.432 350.104 399.678 350.343 399.852 350.63C400.025 350.912 400.111 351.279 400.111 351.73ZM407.46 354H405.375V343.363H407.46V354ZM412.785 346.2C413.811 346.2 414.597 346.424 415.144 346.87C415.69 347.317 415.964 347.996 415.964 348.907V354H414.508L414.104 352.961H414.05C413.831 353.234 413.608 353.458 413.38 353.631C413.152 353.804 412.89 353.932 412.594 354.014C412.298 354.096 411.938 354.137 411.514 354.137C411.062 354.137 410.657 354.05 410.297 353.877C409.941 353.704 409.661 353.439 409.456 353.084C409.251 352.724 409.148 352.268 409.148 351.717C409.148 350.906 409.433 350.309 410.003 349.926C410.573 349.538 411.427 349.324 412.566 349.283L413.893 349.242V348.907C413.893 348.506 413.788 348.212 413.578 348.025C413.368 347.839 413.077 347.745 412.703 347.745C412.334 347.745 411.972 347.798 411.616 347.902C411.261 348.007 410.905 348.139 410.55 348.299L409.859 346.891C410.265 346.676 410.718 346.508 411.22 346.385C411.726 346.262 412.247 346.2 412.785 346.2ZM413.893 350.459L413.086 350.486C412.411 350.505 411.942 350.625 411.678 350.849C411.418 351.072 411.288 351.366 411.288 351.73C411.288 352.049 411.382 352.277 411.568 352.414C411.755 352.546 411.999 352.612 412.3 352.612C412.746 352.612 413.122 352.48 413.428 352.216C413.738 351.951 413.893 351.576 413.893 351.088V350.459ZM420.202 343.363V345.838C420.202 346.125 420.193 346.41 420.175 346.692C420.161 346.975 420.143 347.194 420.12 347.349H420.202C420.403 347.034 420.676 346.768 421.022 346.549C421.369 346.326 421.818 346.214 422.369 346.214C423.226 346.214 423.921 346.549 424.454 347.219C424.987 347.889 425.254 348.871 425.254 350.165C425.254 351.035 425.131 351.767 424.885 352.359C424.639 352.947 424.295 353.392 423.853 353.692C423.41 353.989 422.898 354.137 422.314 354.137C421.754 354.137 421.312 354.036 420.988 353.836C420.665 353.635 420.403 353.41 420.202 353.159H420.059L419.71 354H418.117V343.363H420.202ZM421.699 347.882C421.335 347.882 421.045 347.957 420.831 348.107C420.617 348.258 420.46 348.483 420.359 348.784C420.264 349.085 420.211 349.465 420.202 349.926V350.151C420.202 350.894 420.312 351.464 420.53 351.86C420.749 352.252 421.148 352.448 421.727 352.448C422.155 352.448 422.494 352.25 422.745 351.854C423 351.457 423.128 350.885 423.128 350.138C423.128 349.39 423 348.827 422.745 348.449C422.49 348.071 422.141 347.882 421.699 347.882ZM430.128 346.214C430.834 346.214 431.443 346.351 431.953 346.624C432.464 346.893 432.858 347.285 433.136 347.8C433.414 348.315 433.553 348.944 433.553 349.687V350.698H428.624C428.647 351.286 428.822 351.749 429.15 352.086C429.483 352.419 429.943 352.585 430.531 352.585C431.019 352.585 431.465 352.535 431.871 352.435C432.277 352.334 432.694 352.184 433.122 351.983V353.597C432.744 353.784 432.347 353.92 431.933 354.007C431.522 354.093 431.023 354.137 430.436 354.137C429.67 354.137 428.991 353.995 428.398 353.713C427.811 353.43 427.348 353 427.011 352.421C426.678 351.842 426.512 351.113 426.512 350.233C426.512 349.34 426.662 348.597 426.963 348.005C427.268 347.408 427.692 346.961 428.234 346.665C428.777 346.364 429.408 346.214 430.128 346.214ZM430.142 347.697C429.736 347.697 429.399 347.827 429.13 348.087C428.866 348.347 428.713 348.755 428.672 349.311H431.598C431.593 349.001 431.536 348.725 431.427 348.483C431.322 348.242 431.162 348.05 430.948 347.909C430.739 347.768 430.47 347.697 430.142 347.697ZM437.333 354H435.248V343.363H437.333V354Z" fill="#000716"/>
<rect y="396" width="14" height="14" rx="2" fill="#7492E7"/>
<path d="M27.1807 408H25.8408L20.3926 399.605H20.3379C20.3516 399.829 20.3675 400.084 20.3857 400.371C20.404 400.654 20.4176 400.957 20.4268 401.28C20.4404 401.599 20.4473 401.925 20.4473 402.258V408H19.3672V398.006H20.7002L26.1279 406.373H26.1758C26.1667 406.214 26.1553 405.988 26.1416 405.696C26.1279 405.4 26.1143 405.083 26.1006 404.746C26.0915 404.404 26.0869 404.088 26.0869 403.796V398.006H27.1807V408ZM29.9082 408V398.006H31.0703V406.961H35.5068V408H29.9082ZM39.834 398.006C41.1237 398.006 42.0648 398.259 42.6572 398.765C43.2542 399.266 43.5527 399.986 43.5527 400.925C43.5527 401.349 43.4821 401.752 43.3408 402.135C43.2041 402.513 42.9808 402.848 42.6709 403.14C42.361 403.427 41.9531 403.655 41.4473 403.823C40.946 403.987 40.3307 404.069 39.6016 404.069H38.3848V408H37.2227V398.006H39.834ZM39.7246 398.997H38.3848V403.071H39.4717C40.1097 403.071 40.6406 403.003 41.0645 402.866C41.4928 402.729 41.8141 402.508 42.0283 402.203C42.2425 401.893 42.3496 401.483 42.3496 400.973C42.3496 400.307 42.1377 399.813 41.7139 399.489C41.29 399.161 40.627 398.997 39.7246 398.997Z" fill="#000716"/>
<rect x="61" y="401.5" width="6" height="3" rx="1" fill="#5F6B7A"/>
<rect x="69" y="401.5" width="6" height="3" rx="1" fill="#5F6B7A"/>
<path d="M80.9785 398.006C82.2682 398.006 83.2093 398.259 83.8018 398.765C84.3988 399.266 84.6973 399.986 84.6973 400.925C84.6973 401.349 84.6266 401.752 84.4854 402.135C84.3486 402.513 84.1253 402.848 83.8154 403.14C83.5055 403.427 83.0977 403.655 82.5918 403.823C82.0905 403.987 81.4753 404.069 80.7461 404.069H79.5293V408H78.3672V398.006H80.9785ZM80.8691 398.997H79.5293V403.071H80.6162C81.2542 403.071 81.7852 403.003 82.209 402.866C82.6374 402.729 82.9587 402.508 83.1729 402.203C83.387 401.893 83.4941 401.483 83.4941 400.973C83.4941 400.307 83.2822 399.813 82.8584 399.489C82.4346 399.161 81.7715 398.997 80.8691 398.997ZM89.5029 400.371C90.141 400.371 90.6878 400.512 91.1436 400.795C91.5993 401.077 91.9479 401.474 92.1895 401.984C92.431 402.49 92.5518 403.083 92.5518 403.762V404.466H87.377C87.3906 405.345 87.6094 406.015 88.0332 406.476C88.457 406.936 89.054 407.166 89.8242 407.166C90.2982 407.166 90.7174 407.123 91.082 407.036C91.4466 406.95 91.8249 406.822 92.2168 406.653V407.651C91.8385 407.82 91.4626 407.943 91.0889 408.021C90.7197 408.098 90.2822 408.137 89.7764 408.137C89.0563 408.137 88.4274 407.991 87.8896 407.699C87.3564 407.403 86.9417 406.97 86.6455 406.4C86.3493 405.831 86.2012 405.133 86.2012 404.309C86.2012 403.502 86.3356 402.805 86.6045 402.217C86.8779 401.624 87.2607 401.169 87.7529 400.85C88.2497 400.531 88.833 400.371 89.5029 400.371ZM89.4893 401.301C88.8831 401.301 88.4001 401.499 88.04 401.896C87.68 402.292 87.4658 402.846 87.3975 403.557H91.3623C91.3577 403.11 91.2871 402.718 91.1504 402.381C91.0182 402.039 90.8154 401.775 90.542 401.588C90.2686 401.396 89.9176 401.301 89.4893 401.301ZM97.8838 400.371C98.0342 400.371 98.1914 400.38 98.3555 400.398C98.5195 400.412 98.6654 400.433 98.793 400.46L98.6494 401.513C98.5264 401.481 98.3896 401.456 98.2393 401.438C98.0889 401.419 97.9476 401.41 97.8154 401.41C97.5146 401.41 97.2298 401.472 96.9609 401.595C96.6966 401.713 96.4642 401.886 96.2637 402.114C96.0632 402.338 95.9059 402.609 95.792 402.928C95.6781 403.242 95.6211 403.593 95.6211 403.98V408H94.4795V400.508H95.4229L95.5459 401.889H95.5938C95.7487 401.611 95.9355 401.358 96.1543 401.13C96.373 400.897 96.626 400.713 96.9131 400.576C97.2048 400.439 97.5283 400.371 97.8838 400.371ZM103.544 401.396H101.678V408H100.543V401.396H99.2168V400.85L100.543 400.474V399.975C100.543 399.346 100.636 398.835 100.823 398.443C101.01 398.047 101.281 397.755 101.637 397.568C101.992 397.382 102.425 397.288 102.936 397.288C103.223 397.288 103.485 397.313 103.722 397.363C103.963 397.413 104.175 397.47 104.357 397.534L104.063 398.43C103.909 398.38 103.733 398.334 103.537 398.293C103.346 398.247 103.15 398.225 102.949 398.225C102.516 398.225 102.195 398.366 101.985 398.648C101.78 398.926 101.678 399.364 101.678 399.961V400.508H103.544V401.396ZM111.385 404.24C111.385 404.855 111.305 405.405 111.146 405.888C110.986 406.371 110.756 406.779 110.455 407.111C110.154 407.444 109.79 407.699 109.361 407.877C108.938 408.05 108.457 408.137 107.919 408.137C107.418 408.137 106.957 408.05 106.538 407.877C106.123 407.699 105.763 407.444 105.458 407.111C105.157 406.779 104.923 406.371 104.754 405.888C104.59 405.405 104.508 404.855 104.508 404.24C104.508 403.42 104.647 402.723 104.925 402.148C105.203 401.57 105.599 401.13 106.114 400.829C106.634 400.524 107.251 400.371 107.967 400.371C108.65 400.371 109.247 400.524 109.758 400.829C110.273 401.134 110.672 401.576 110.954 402.155C111.241 402.729 111.385 403.424 111.385 404.24ZM105.684 404.24C105.684 404.842 105.763 405.364 105.923 405.806C106.082 406.248 106.328 406.59 106.661 406.831C106.994 407.073 107.422 407.193 107.946 407.193C108.466 407.193 108.892 407.073 109.225 406.831C109.562 406.59 109.81 406.248 109.97 405.806C110.129 405.364 110.209 404.842 110.209 404.24C110.209 403.643 110.129 403.128 109.97 402.695C109.81 402.258 109.564 401.921 109.231 401.684C108.899 401.447 108.468 401.328 107.939 401.328C107.16 401.328 106.588 401.586 106.224 402.101C105.864 402.616 105.684 403.329 105.684 404.24ZM116.751 400.371C116.901 400.371 117.059 400.38 117.223 400.398C117.387 400.412 117.533 400.433 117.66 400.46L117.517 401.513C117.394 401.481 117.257 401.456 117.106 401.438C116.956 401.419 116.815 401.41 116.683 401.41C116.382 401.41 116.097 401.472 115.828 401.595C115.564 401.713 115.331 401.886 115.131 402.114C114.93 402.338 114.773 402.609 114.659 402.928C114.545 403.242 114.488 403.593 114.488 403.98V408H113.347V400.508H114.29L114.413 401.889H114.461C114.616 401.611 114.803 401.358 115.021 401.13C115.24 400.897 115.493 400.713 115.78 400.576C116.072 400.439 116.396 400.371 116.751 400.371ZM127.21 400.371C128.035 400.371 128.657 400.588 129.076 401.021C129.495 401.449 129.705 402.139 129.705 403.092V408H128.584V403.146C128.584 402.54 128.452 402.087 128.188 401.786C127.928 401.481 127.54 401.328 127.025 401.328C126.301 401.328 125.774 401.538 125.446 401.957C125.118 402.376 124.954 402.994 124.954 403.81V408H123.826V403.146C123.826 402.741 123.767 402.404 123.648 402.135C123.535 401.866 123.361 401.665 123.129 401.533C122.901 401.396 122.612 401.328 122.261 401.328C121.764 401.328 121.365 401.431 121.064 401.636C120.764 401.841 120.545 402.146 120.408 402.552C120.276 402.953 120.21 403.447 120.21 404.035V408H119.075V400.508H119.991L120.162 401.567H120.224C120.374 401.308 120.563 401.089 120.791 400.911C121.019 400.733 121.274 400.599 121.557 400.508C121.839 400.417 122.14 400.371 122.459 400.371C123.029 400.371 123.505 400.478 123.888 400.692C124.275 400.902 124.555 401.223 124.729 401.656H124.79C125.036 401.223 125.373 400.902 125.802 400.692C126.23 400.478 126.7 400.371 127.21 400.371ZM134.839 400.385C135.732 400.385 136.395 400.585 136.828 400.986C137.261 401.387 137.478 402.028 137.478 402.907V408H136.65L136.432 406.893H136.377C136.167 407.166 135.949 407.396 135.721 407.583C135.493 407.765 135.229 407.904 134.928 408C134.632 408.091 134.267 408.137 133.834 408.137C133.378 408.137 132.973 408.057 132.617 407.897C132.266 407.738 131.988 407.496 131.783 407.173C131.583 406.849 131.482 406.439 131.482 405.942C131.482 405.195 131.779 404.621 132.371 404.22C132.964 403.819 133.866 403.6 135.078 403.563L136.37 403.509V403.051C136.37 402.404 136.231 401.95 135.953 401.69C135.675 401.431 135.283 401.301 134.777 401.301C134.385 401.301 134.012 401.358 133.656 401.472C133.301 401.586 132.964 401.72 132.645 401.875L132.296 401.014C132.633 400.84 133.021 400.692 133.458 400.569C133.896 400.446 134.356 400.385 134.839 400.385ZM136.356 404.309L135.215 404.356C134.281 404.393 133.622 404.546 133.239 404.814C132.856 405.083 132.665 405.464 132.665 405.956C132.665 406.384 132.795 406.701 133.055 406.906C133.314 407.111 133.659 407.214 134.087 407.214C134.752 407.214 135.297 407.029 135.721 406.66C136.145 406.291 136.356 405.737 136.356 404.999V404.309ZM143.363 400.371C144.252 400.371 144.924 400.59 145.38 401.027C145.836 401.46 146.063 402.158 146.063 403.119V408H144.942V403.194C144.942 402.57 144.799 402.103 144.512 401.793C144.229 401.483 143.794 401.328 143.206 401.328C142.377 401.328 141.793 401.563 141.456 402.032C141.119 402.502 140.95 403.183 140.95 404.076V408H139.815V400.508H140.731L140.902 401.588H140.964C141.123 401.324 141.326 401.103 141.572 400.925C141.818 400.743 142.094 400.606 142.399 400.515C142.705 400.419 143.026 400.371 143.363 400.371ZM151.402 408.137C150.728 408.137 150.133 407.998 149.618 407.72C149.103 407.442 148.702 407.018 148.415 406.448C148.128 405.879 147.984 405.161 147.984 404.295C147.984 403.388 148.135 402.647 148.436 402.073C148.741 401.494 149.16 401.066 149.693 400.788C150.227 400.51 150.833 400.371 151.512 400.371C151.885 400.371 152.245 400.41 152.592 400.487C152.943 400.56 153.23 400.654 153.453 400.768L153.111 401.718C152.883 401.627 152.619 401.545 152.318 401.472C152.022 401.399 151.744 401.362 151.484 401.362C150.965 401.362 150.532 401.474 150.186 401.697C149.844 401.921 149.586 402.249 149.413 402.682C149.244 403.115 149.16 403.648 149.16 404.281C149.16 404.887 149.242 405.405 149.406 405.833C149.575 406.261 149.823 406.59 150.151 406.817C150.484 407.041 150.899 407.152 151.396 407.152C151.792 407.152 152.15 407.111 152.469 407.029C152.788 406.943 153.077 406.842 153.337 406.729V407.74C153.086 407.868 152.806 407.966 152.496 408.034C152.191 408.103 151.826 408.137 151.402 408.137ZM157.999 400.371C158.637 400.371 159.184 400.512 159.64 400.795C160.095 401.077 160.444 401.474 160.686 401.984C160.927 402.49 161.048 403.083 161.048 403.762V404.466H155.873C155.887 405.345 156.105 406.015 156.529 406.476C156.953 406.936 157.55 407.166 158.32 407.166C158.794 407.166 159.214 407.123 159.578 407.036C159.943 406.95 160.321 406.822 160.713 406.653V407.651C160.335 407.82 159.959 407.943 159.585 408.021C159.216 408.098 158.778 408.137 158.272 408.137C157.552 408.137 156.924 407.991 156.386 407.699C155.853 407.403 155.438 406.97 155.142 406.4C154.845 405.831 154.697 405.133 154.697 404.309C154.697 403.502 154.832 402.805 155.101 402.217C155.374 401.624 155.757 401.169 156.249 400.85C156.746 400.531 157.329 400.371 157.999 400.371ZM157.985 401.301C157.379 401.301 156.896 401.499 156.536 401.896C156.176 402.292 155.962 402.846 155.894 403.557H159.858C159.854 403.11 159.783 402.718 159.646 402.381C159.514 402.039 159.312 401.775 159.038 401.588C158.765 401.396 158.414 401.301 157.985 401.301Z" fill="#000716"/>
</svg>
